999
dxfrw 0.5.11
0
SECTION
2
HEADER
9
$ACADVER
1
AC1021
9
$HANDSEED
5
20000
9
$DWGCODEPAGE
3
ANSI_1252
9
$INSBASE
10
0
20
0
30
0
9
$EXTMIN
10
0
20
0
30
0
9
$EXTMAX
10
600
20
400
30
0
9
$LIMMIN
10
0
20
0
9
$LIMMAX
10
420
20
297
9
$ORTHOMODE
70
0
9
$LTSCALE
40
1
9
$TEXTSTYLE
7
STANDARD
9
$CLAYER
8
Dimensions
9
$DIMASZ
40
2.5
9
$DIMLFAC
40
1
9
$DIMSCALE
40
1
9
$DIMEXO
40
0.625
9
$DIMEXE
40
1.25
9
$DIMTXT
40
2.5
9
$DIMTSZ
40
0
9
$DIMAUNIT
70
0
9
$DIMADEC
70
0
9
$DIMLUNIT
70
2
9
$DIMSTYLE
2
Standard
9
$DIMGAP
40
0.625
9
$DIMTIH
70
0
9
$LUNITS
70
2
9
$LUPREC
70
4
9
$AUNITS
70
0
9
$AUPREC
70
2
9
$SPLINESEGS
70
8
9
$GRIDMODE
70
0
9
$SNAPSTYLE
70
0
9
$PINSBASE
10
0
20
0
30
0
9
$PLIMMIN
10
0
20
0
9
$PLIMMAX
10
210
20
297
9
$INSUNITS
70
4
9
$PSVPSCALE
40
1
0
ENDSEC
0
SECTION
2
CLASSES
0
ENDSEC
0
SECTION
2
TABLES
0
TABLE
2
VPORT
5
8
330
0
100
AcDbSymbolTable
70
1
0
VPORT
5
31
330
2
100
AcDbSymbolTableRecord
100
AcDbViewportTableRecord
2
*ACTIVE
70
0
10
0
20
0
11
1
21
1
12
428.22411817
22
271.191991018
13
0
23
0
14
10
24
10
15
10
25
10
16
0
26
0
36
1
17
0
27
0
37
0
40
766.715592253
41
2.04291287386
42
50
43
0
44
0
50
0
51
0
71
0
72
100
73
1
74
3
75
0
76
0
77
0
78
0
281
0
65
1
110
0
120
0
130
0
111
1
121
0
131
0
112
0
122
1
132
0
79
0
146
0
348
10020
60
7
61
5
292
1
282
1
141
0
142
0
63
250
421
3358443
0
ENDTAB
0
TABLE
2
LTYPE
5
5
330
0
100
AcDbSymbolTable
70
4
0
LTYPE
5
14
330
5
100
AcDbSymbolTableRecord
100
AcDbLinetypeTableRecord
2
ByBlock
70
0
3

72
65
73
0
40
0
0
LTYPE
5
15
330
5
100
AcDbSymbolTableRecord
100
AcDbLinetypeTableRecord
2
ByLayer
70
0
3

72
65
73
0
40
0
0
LTYPE
5
16
330
5
100
AcDbSymbolTableRecord
100
AcDbLinetypeTableRecord
2
Continuous
70
0
3
Solid line
72
65
73
0
40
0
0
LTYPE
5
32
330
5
100
AcDbSymbolTableRecord
100
AcDbLinetypeTableRecord
2
DOT
70
0
3
Dot . . . . . . . . . . . . . . . . . . . . . .
72
65
73
2
40
6.35
49
0
74
0
49
-6.35
74
0
0
LTYPE
5
33
330
5
100
AcDbSymbolTableRecord
100
AcDbLinetypeTableRecord
2
DOT2
70
0
3
Dot (.5x) .....................................
72
65
73
2
40
3.175
49
0
74
0
49
-3.175
74
0
0
LTYPE
5
34
330
5
100
AcDbSymbolTableRecord
100
AcDbLinetypeTableRecord
2
DOTX2
70
0
3
Dot (2x) .  .  .  .  .  .  .  .  .  .  .  .  .
72
65
73
2
40
12.7
49
0
74
0
49
-12.7
74
0
0
LTYPE
5
35
330
5
100
AcDbSymbolTableRecord
100
AcDbLinetypeTableRecord
2
DASHED
70
0
3
Dot . . . . . . . . . . . . . . . . . . . . . .
72
65
73
2
40
19.05
49
12.7
74
0
49
-6.35
74
0
0
LTYPE
5
36
330
5
100
AcDbSymbolTableRecord
100
AcDbLinetypeTableRecord
2
DASHED2
70
0
3
Dashed (.5x) _ _ _ _ _ _ _ _ _ _ _ _ _ _ _ _ _
72
65
73
2
40
9.525
49
6.35
74
0
49
-3.175
74
0
0
LTYPE
5
37
330
5
100
AcDbSymbolTableRecord
100
AcDbLinetypeTableRecord
2
DASHEDX2
70
0
3
Dashed (2x) ____  ____  ____  ____  ____  ___
72
65
73
2
40
38.1
49
25.4
74
0
49
-12.7
74
0
0
LTYPE
5
38
330
5
100
AcDbSymbolTableRecord
100
AcDbLinetypeTableRecord
2
DASHDOT
70
0
3
Dash dot __ . __ . __ . __ . __ . __ . __ . __
72
65
73
4
40
25.4
49
12.7
74
0
49
-6.35
74
0
49
0
74
0
49
-6.35
74
0
0
LTYPE
5
39
330
5
100
AcDbSymbolTableRecord
100
AcDbLinetypeTableRecord
2
DASHDOT2
70
0
3
Dash dot (.5x) _._._._._._._._._._._._._._._.
72
65
73
4
40
12.7
49
6.35
74
0
49
-3.175
74
0
49
0
74
0
49
-3.175
74
0
0
LTYPE
5
3A
330
5
100
AcDbSymbolTableRecord
100
AcDbLinetypeTableRecord
2
DASHDOTX2
70
0
3
Dash dot (2x) ____  .  ____  .  ____  .  ___
72
65
73
4
40
50.8
49
25.4
74
0
49
-12.7
74
0
49
0
74
0
49
-12.7
74
0
0
LTYPE
5
3B
330
5
100
AcDbSymbolTableRecord
100
AcDbLinetypeTableRecord
2
DIVIDE
70
0
3
Divide ____ . . ____ . . ____ . . ____ . . ____
72
65
73
6
40
31.75
49
12.7
74
0
49
-6.35
74
0
49
0
74
0
49
-6.35
74
0
49
0
74
0
49
-6.35
74
0
0
LTYPE
5
3C
330
5
100
AcDbSymbolTableRecord
100
AcDbLinetypeTableRecord
2
DIVIDE2
70
0
3
Divide (.5x) __..__..__..__..__..__..__..__.._
72
65
73
6
40
15.875
49
6.35
74
0
49
-3.175
74
0
49
0
74
0
49
-3.175
74
0
49
0
74
0
49
-3.175
74
0
0
LTYPE
5
3D
330
5
100
AcDbSymbolTableRecord
100
AcDbLinetypeTableRecord
2
DIVIDEX2
70
0
3
Divide (2x) ________  .  .  ________  .  .  _
72
65
73
6
40
63.5
49
25.4
74
0
49
-12.7
74
0
49
0
74
0
49
-12.7
74
0
49
0
74
0
49
-12.7
74
0
0
LTYPE
5
3E
330
5
100
AcDbSymbolTableRecord
100
AcDbLinetypeTableRecord
2
BORDER
70
0
3
Border __ __ . __ __ . __ __ . __ __ . __ __ .
72
65
73
6
40
44.45
49
12.7
74
0
49
-6.35
74
0
49
12.7
74
0
49
-6.35
74
0
49
0
74
0
49
-6.35
74
0
0
LTYPE
5
3F
330
5
100
AcDbSymbolTableRecord
100
AcDbLinetypeTableRecord
2
BORDER2
70
0
3
Border (.5x) __.__.__.__.__.__.__.__.__.__.__.
72
65
73
6
40
22.225
49
6.35
74
0
49
-3.175
74
0
49
6.35
74
0
49
-3.175
74
0
49
0
74
0
49
-3.175
74
0
0
LTYPE
5
40
330
5
100
AcDbSymbolTableRecord
100
AcDbLinetypeTableRecord
2
BORDERX2
70
0
3
Border (2x) ____  ____  .  ____  ____  .  ___
72
65
73
6
40
88.9
49
25.4
74
0
49
-12.7
74
0
49
25.4
74
0
49
-12.7
74
0
49
0
74
0
49
-12.7
74
0
0
LTYPE
5
41
330
5
100
AcDbSymbolTableRecord
100
AcDbLinetypeTableRecord
2
CENTER
70
0
3
Center ____ _ ____ _ ____ _ ____ _ ____ _ ____
72
65
73
4
40
50.8
49
31.75
74
0
49
-6.35
74
0
49
6.35
74
0
49
-6.35
74
0
0
LTYPE
5
42
330
5
100
AcDbSymbolTableRecord
100
AcDbLinetypeTableRecord
2
CENTER2
70
0
3
Center (.5x) ___ _ ___ _ ___ _ ___ _ ___ _ ___
72
65
73
4
40
28.575
49
19.05
74
0
49
-3.175
74
0
49
3.175
74
0
49
-3.175
74
0
0
LTYPE
5
43
330
5
100
AcDbSymbolTableRecord
100
AcDbLinetypeTableRecord
2
CENTERX2
70
0
3
Center (2x) ________  __  ________  __  _____
72
65
73
4
40
101.6
49
63.5
74
0
49
-12.7
74
0
49
12.7
74
0
49
-12.7
74
0
0
ENDTAB
0
TABLE
2
LAYER
5
2
330
0
100
AcDbSymbolTable
70
1
0
LAYER
5
10
330
2
100
AcDbSymbolTableRecord
100
AcDbLayerTableRecord
2
0
70
0
62
7
6
CONTINUOUS
370
-3
390
F
0
LAYER
5
44
330
2
100
AcDbSymbolTableRecord
100
AcDbLayerTableRecord
2
Cut
70
0
62
7
6
CONTINUOUS
370
-3
390
F
0
LAYER
5
45
330
2
100
AcDbSymbolTableRecord
100
AcDbLayerTableRecord
2
Dimensions
70
1
62
136
420
32896
6
CONTINUOUS
370
0
390
F
0
LAYER
5
46
330
2
100
AcDbSymbolTableRecord
100
AcDbLayerTableRecord
2
Text
70
0
62
4
6
CONTINUOUS
370
-3
390
F
0
ENDTAB
0
TABLE
2
STYLE
5
3
330
0
100
AcDbSymbolTable
70
3
0
STYLE
5
47
330
2
100
AcDbSymbolTableRecord
100
AcDbTextStyleTableRecord
2
iso
70
0
40
0
41
1
50
0
71
0
42
1
3
iso
4

0
STYLE
5
48
330
2
100
AcDbSymbolTableRecord
100
AcDbTextStyleTableRecord
2
Standard
70
0
40
0
41
1
50
0
71
0
42
1
3
txt
4

0
ENDTAB
0
TABLE
2
VIEW
5
6
330
0
100
AcDbSymbolTable
70
0
0
ENDTAB
0
TABLE
2
UCS
5
7
330
0
100
AcDbSymbolTable
70
0
0
ENDTAB
0
TABLE
2
APPID
5
9
330
0
100
AcDbSymbolTable
70
1
0
APPID
5
12
330
9
100
AcDbSymbolTableRecord
100
AcDbRegAppTableRecord
2
ACAD
70
0
0
ENDTAB
0
TABLE
2
DIMSTYLE
5
A
330
0
100
AcDbSymbolTable
70
1
100
AcDbDimStyleTable
71
1
0
DIMSTYLE
105
49
330
A
100
AcDbSymbolTableRecord
100
AcDbDimStyleTableRecord
2
Standard
70
0
40
1
41
2.5
42
0.625
43
0.38
44
1.25
45
0
46
0
47
0
48
0
140
2.5
141
0.09
142
0
143
25.4
144
1
145
0
146
1
147
0.625
148
0
71
0
72
0
73
0
74
1
75
0
76
0
77
0
78
0
79
0
170
0
171
2
172
0
173
0
174
0
175
0
176
0
177
0
178
0
179
0
271
4
272
4
273
2
274
2
275
0
276
0
277
2
278
46
279
0
280
0
281
0
282
0
283
1
284
0
285
0
286
0
288
0
289
3
340
Standard
341

371
-2
372
-2
0
ENDTAB
0
TABLE
2
BLOCK_RECORD
5
1
330
0
100
AcDbSymbolTable
70
2
0
BLOCK_RECORD
5
1F
330
1
100
AcDbSymbolTableRecord
100
AcDbBlockTableRecord
2
*Model_Space
70
0
280
1
281
0
0
BLOCK_RECORD
5
1E
330
1
100
AcDbSymbolTableRecord
100
AcDbBlockTableRecord
2
*Paper_Space
70
0
280
1
281
0
0
ENDTAB
0
ENDSEC
0
SECTION
2
BLOCKS
0
BLOCK
5
20
330
1F
100
AcDbEntity
8
0
100
AcDbBlockBegin
2
*Model_Space
70
0
10
0
20
0
30
0
3
*Model_Space
1

0
ENDBLK
5
21
330
1F
100
AcDbEntity
8
0
100
AcDbBlockEnd
0
BLOCK
5
1C
330
1B
100
AcDbEntity
8
0
100
AcDbBlockBegin
2
*Paper_Space
70
0
10
0
20
0
30
0
3
*Paper_Space
1

0
ENDBLK
5
1D
330
1F
100
AcDbEntity
8
0
100
AcDbBlockEnd
0
ENDSEC
0
SECTION
2
ENTITIES
0
LINE
5
4A
100
AcDbEntity
8
0
6
ByLayer
62
6
370
-1
100
AcDbLine
10
600
20
0
11
600
21
400
0
LINE
5
4B
100
AcDbEntity
8
0
6
ByLayer
62
6
370
-1
100
AcDbLine
10
600
20
400
11
0
21
400
0
LINE
5
4C
100
AcDbEntity
8
0
6
ByLayer
62
6
370
-1
100
AcDbLine
10
0
20
0
11
600
21
0
0
LINE
5
4D
100
AcDbEntity
8
0
6
ByLayer
62
6
370
-1
100
AcDbLine
10
0
20
400
11
0
21
0
0
LINE
5
4E
100
AcDbEntity
8
Cut
6
ByLayer
62
1
370
-1
100
AcDbLine
10
461.617009358
20
164.616652224
11
463.667619023
21
166.66726189
0
LINE
5
4F
100
AcDbEntity
8
Cut
6
ByLayer
62
1
370
-1
100
AcDbLine
10
463.667619023
20
166.66726189
11
456.66726189
21
173.667619023
0
LINE
5
50
100
AcDbEntity
8
Cut
6
ByLayer
62
1
370
-1
100
AcDbLine
10
456.66726189
20
173.667619023
11
454.616652224
21
171.617009358
0
LINE
5
51
100
AcDbEntity
8
Cut
6
ByLayer
62
1
370
-1
100
AcDbLine
10
454.616652224
20
171.617009358
11
461.617009358
21
164.616652224
0
LINE
5
52
100
AcDbEntity
8
Cut
6
ByLayer
62
1
370
-1
100
AcDbLine
10
435.383347776
20
171.617009358
11
433.33273811
21
173.667619023
0
LINE
5
53
100
AcDbEntity
8
Cut
6
ByLayer
62
1
370
-1
100
AcDbLine
10
433.33273811
20
173.667619023
11
426.332380977
21
166.66726189
0
LINE
5
54
100
AcDbEntity
8
Cut
6
ByLayer
62
1
370
-1
100
AcDbLine
10
426.332380977
20
166.66726189
11
428.382990642
21
164.616652224
0
LINE
5
55
100
AcDbEntity
8
Cut
6
ByLayer
62
1
370
-1
100
AcDbLine
10
428.382990642
20
164.616652224
11
435.383347776
21
171.617009358
0
LINE
5
56
100
AcDbEntity
8
Cut
6
ByLayer
62
1
370
-1
100
AcDbLine
10
428.382990642
20
145.383347776
11
426.332380977
21
143.33273811
0
LINE
5
57
100
AcDbEntity
8
Cut
6
ByLayer
62
1
370
-1
100
AcDbLine
10
426.332380977
20
143.33273811
11
433.33273811
21
136.332380977
0
LINE
5
58
100
AcDbEntity
8
Cut
6
ByLayer
62
1
370
-1
100
AcDbLine
10
433.33273811
20
136.332380977
11
435.383347776
21
138.382990642
0
LINE
5
59
100
AcDbEntity
8
Cut
6
ByLayer
62
1
370
-1
100
AcDbLine
10
435.383347776
20
138.382990642
11
428.382990642
21
145.383347776
0
LINE
5
5A
100
AcDbEntity
8
Cut
6
ByLayer
62
1
370
-1
100
AcDbLine
10
454.616652224
20
138.382990642
11
456.66726189
21
136.332380977
0
LINE
5
5B
100
AcDbEntity
8
Cut
6
ByLayer
62
1
370
-1
100
AcDbLine
10
456.66726189
20
136.332380977
11
463.667619023
21
143.33273811
0
LINE
5
5C
100
AcDbEntity
8
Cut
6
ByLayer
62
1
370
-1
100
AcDbLine
10
463.667619023
20
143.33273811
11
461.617009358
21
145.383347776
0
LINE
5
5D
100
AcDbEntity
8
Cut
6
ByLayer
62
1
370
-1
100
AcDbLine
10
461.617009358
20
145.383347776
11
454.616652224
21
138.382990642
0
LINE
5
5E
100
AcDbEntity
8
Cut
6
ByLayer
62
1
370
-1
100
AcDbLine
10
561.039599232
20
197.707334383
11
563.718849876
21
198.817116337
0
LINE
5
5F
100
AcDbEntity
8
Cut
6
ByLayer
62
1
370
-1
100
AcDbLine
10
563.718849876
20
198.817116337
11
559.930283896
21
207.963523708
0
LINE
5
60
100
AcDbEntity
8
Cut
6
ByLayer
62
1
370
-1
100
AcDbLine
10
559.930283896
20
207.963523708
11
557.251033252
21
206.853741755
0
LINE
5
61
100
AcDbEntity
8
Cut
6
ByLayer
62
1
370
-1
100
AcDbLine
10
557.251033252
20
206.853741755
11
561.039599232
21
197.707334383
0
LINE
5
62
100
AcDbEntity
8
Cut
6
ByLayer
62
1
370
-1
100
AcDbLine
10
402.292665617
20
271.039599232
11
401.182883663
21
273.718849876
0
LINE
5
63
100
AcDbEntity
8
Cut
6
ByLayer
62
1
370
-1
100
AcDbLine
10
401.182883663
20
273.718849876
11
392.036476292
21
269.930283896
0
LINE
5
64
100
AcDbEntity
8
Cut
6
ByLayer
62
1
370
-1
100
AcDbLine
10
392.036476292
20
269.930283896
11
393.146258245
21
267.251033252
0
LINE
5
65
100
AcDbEntity
8
Cut
6
ByLayer
62
1
370
-1
100
AcDbLine
10
393.146258245
20
267.251033252
11
402.292665617
21
271.039599232
0
LINE
5
66
100
AcDbEntity
8
Cut
6
ByLayer
62
1
370
-1
100
AcDbLine
10
328.960400768
20
112.292665617
11
326.281150124
21
111.182883663
0
LINE
5
67
100
AcDbEntity
8
Cut
6
ByLayer
62
1
370
-1
100
AcDbLine
10
326.281150124
20
111.182883663
11
330.069716104
21
102.036476292
0
LINE
5
68
100
AcDbEntity
8
Cut
6
ByLayer
62
1
370
-1
100
AcDbLine
10
330.069716104
20
102.036476292
11
332.748966748
21
103.146258245
0
LINE
5
69
100
AcDbEntity
8
Cut
6
ByLayer
62
1
370
-1
100
AcDbLine
10
332.748966748
20
103.146258245
11
328.960400768
21
112.292665617
0
LINE
5
6A
100
AcDbEntity
8
Cut
6
ByLayer
62
1
370
-1
100
AcDbLine
10
487.707334383
20
38.960400768
11
488.817116337
21
36.2811501237
0
LINE
5
6B
100
AcDbEntity
8
Cut
6
ByLayer
62
1
370
-1
100
AcDbLine
10
488.817116337
20
36.2811501237
11
497.963523708
21
40.0697161042
0
LINE
5
6C
100
AcDbEntity
8
Cut
6
ByLayer
62
1
370
-1
100
AcDbLine
10
497.963523708
20
40.0697161042
11
496.853741755
21
42.7489667484
0
LINE
5
6D
100
AcDbEntity
8
Cut
6
ByLayer
62
1
370
-1
100
AcDbLine
10
496.853741755
20
42.7489667484
11
487.707334383
21
38.960400768
0
CIRCLE
5
6E
100
AcDbEntity
8
Cut
6
ByLayer
62
5
370
-1
100
AcDbCircle
10
445
20
155
40
140
0
LINE
5
6F
100
AcDbEntity
8
Cut
6
ByLayer
62
5
370
-1
100
AcDbLine
10
295.17938
20
245.179372
11
295.17938
21
245.179372
0
LINE
5
70
100
AcDbEntity
8
Cut
6
ByLayer
62
1
370
-1
100
AcDbLine
10
171.617009358
20
254.616652224
11
173.667619023
21
256.66726189
0
LINE
5
71
100
AcDbEntity
8
Cut
6
ByLayer
62
1
370
-1
100
AcDbLine
10
173.667619023
20
256.66726189
11
166.66726189
21
263.667619023
0
LINE
5
72
100
AcDbEntity
8
Cut
6
ByLayer
62
1
370
-1
100
AcDbLine
10
166.66726189
20
263.667619023
11
164.616652224
21
261.617009358
0
LINE
5
73
100
AcDbEntity
8
Cut
6
ByLayer
62
1
370
-1
100
AcDbLine
10
164.616652224
20
261.617009358
11
171.617009358
21
254.616652224
0
LINE
5
74
100
AcDbEntity
8
Cut
6
ByLayer
62
1
370
-1
100
AcDbLine
10
145.383347776
20
261.617009358
11
143.33273811
21
263.667619023
0
LINE
5
75
100
AcDbEntity
8
Cut
6
ByLayer
62
1
370
-1
100
AcDbLine
10
143.33273811
20
263.667619023
11
136.332380977
21
256.66726189
0
LINE
5
76
100
AcDbEntity
8
Cut
6
ByLayer
62
1
370
-1
100
AcDbLine
10
136.332380977
20
256.66726189
11
138.382990642
21
254.616652224
0
LINE
5
77
100
AcDbEntity
8
Cut
6
ByLayer
62
1
370
-1
100
AcDbLine
10
138.382990642
20
254.616652224
11
145.383347776
21
261.617009358
0
LINE
5
78
100
AcDbEntity
8
Cut
6
ByLayer
62
1
370
-1
100
AcDbLine
10
138.382990642
20
235.383347776
11
136.332380977
21
233.33273811
0
LINE
5
79
100
AcDbEntity
8
Cut
6
ByLayer
62
1
370
-1
100
AcDbLine
10
136.332380977
20
233.33273811
11
143.33273811
21
226.332380977
0
LINE
5
7A
100
AcDbEntity
8
Cut
6
ByLayer
62
1
370
-1
100
AcDbLine
10
143.33273811
20
226.332380977
11
145.383347776
21
228.382990642
0
LINE
5
7B
100
AcDbEntity
8
Cut
6
ByLayer
62
1
370
-1
100
AcDbLine
10
145.383347776
20
228.382990642
11
138.382990642
21
235.383347776
0
LINE
5
7C
100
AcDbEntity
8
Cut
6
ByLayer
62
1
370
-1
100
AcDbLine
10
164.616652224
20
228.382990642
11
166.66726189
21
226.332380977
0
LINE
5
7D
100
AcDbEntity
8
Cut
6
ByLayer
62
1
370
-1
100
AcDbLine
10
166.66726189
20
226.332380977
11
173.667619023
21
233.33273811
0
LINE
5
7E
100
AcDbEntity
8
Cut
6
ByLayer
62
1
370
-1
100
AcDbLine
10
173.667619023
20
233.33273811
11
171.617009358
21
235.383347776
0
LINE
5
7F
100
AcDbEntity
8
Cut
6
ByLayer
62
1
370
-1
100
AcDbLine
10
171.617009358
20
235.383347776
11
164.616652224
21
228.382990642
0
LINE
5
80
100
AcDbEntity
8
Cut
6
ByLayer
62
1
370
-1
100
AcDbLine
10
248.55
20
240.05
11
251.45
21
240.05
0
LINE
5
81
100
AcDbEntity
8
Cut
6
ByLayer
62
1
370
-1
100
AcDbLine
10
251.45
20
240.05
11
251.45
21
249.95
0
LINE
5
82
100
AcDbEntity
8
Cut
6
ByLayer
62
1
370
-1
100
AcDbLine
10
251.45
20
249.95
11
248.55
21
249.95
0
LINE
5
83
100
AcDbEntity
8
Cut
6
ByLayer
62
1
370
-1
100
AcDbLine
10
248.55
20
249.95
11
248.55
21
240.05
0
LINE
5
84
100
AcDbEntity
8
Cut
6
ByLayer
62
1
370
-1
100
AcDbLine
10
58.55
20
240.05
11
61.45
21
240.05
0
LINE
5
85
100
AcDbEntity
8
Cut
6
ByLayer
62
1
370
-1
100
AcDbLine
10
61.45
20
240.05
11
61.45
21
249.95
0
LINE
5
86
100
AcDbEntity
8
Cut
6
ByLayer
62
1
370
-1
100
AcDbLine
10
61.45
20
249.95
11
58.55
21
249.95
0
LINE
5
87
100
AcDbEntity
8
Cut
6
ByLayer
62
1
370
-1
100
AcDbLine
10
58.55
20
249.95
11
58.55
21
240.05
0
LINE
5
88
100
AcDbEntity
8
Cut
6
ByLayer
62
1
370
-1
100
AcDbLine
10
271.039599232
20
287.707334383
11
273.718849876
21
288.817116337
0
LINE
5
89
100
AcDbEntity
8
Cut
6
ByLayer
62
1
370
-1
100
AcDbLine
10
273.718849876
20
288.817116337
11
269.930283896
21
297.963523708
0
LINE
5
8A
100
AcDbEntity
8
Cut
6
ByLayer
62
1
370
-1
100
AcDbLine
10
269.930283896
20
297.963523708
11
267.251033252
21
296.853741755
0
LINE
5
8B
100
AcDbEntity
8
Cut
6
ByLayer
62
1
370
-1
100
AcDbLine
10
267.251033252
20
296.853741755
11
271.039599232
21
287.707334383
0
LINE
5
8C
100
AcDbEntity
8
Cut
6
ByLayer
62
1
370
-1
100
AcDbLine
10
112.292665617
20
361.039599232
11
111.182883663
21
363.718849876
0
LINE
5
8D
100
AcDbEntity
8
Cut
6
ByLayer
62
1
370
-1
100
AcDbLine
10
111.182883663
20
363.718849876
11
102.036476292
21
359.930283896
0
LINE
5
8E
100
AcDbEntity
8
Cut
6
ByLayer
62
1
370
-1
100
AcDbLine
10
102.036476292
20
359.930283896
11
103.146258245
21
357.251033252
0
LINE
5
8F
100
AcDbEntity
8
Cut
6
ByLayer
62
1
370
-1
100
AcDbLine
10
103.146258245
20
357.251033252
11
112.292665617
21
361.039599232
0
LINE
5
90
100
AcDbEntity
8
Cut
6
ByLayer
62
1
370
-1
100
AcDbLine
10
38.960400768
20
202.292665617
11
36.2811501237
21
201.182883663
0
LINE
5
91
100
AcDbEntity
8
Cut
6
ByLayer
62
1
370
-1
100
AcDbLine
10
36.2811501237
20
201.182883663
11
40.0697161042
21
192.036476292
0
LINE
5
92
100
AcDbEntity
8
Cut
6
ByLayer
62
1
370
-1
100
AcDbLine
10
40.0697161042
20
192.036476292
11
42.7489667484
21
193.146258245
0
LINE
5
93
100
AcDbEntity
8
Cut
6
ByLayer
62
1
370
-1
100
AcDbLine
10
42.7489667484
20
193.146258245
11
38.960400768
21
202.292665617
0
LINE
5
94
100
AcDbEntity
8
Cut
6
ByLayer
62
1
370
-1
100
AcDbLine
10
197.707334383
20
128.960400768
11
198.817116337
21
126.281150124
0
LINE
5
95
100
AcDbEntity
8
Cut
6
ByLayer
62
1
370
-1
100
AcDbLine
10
198.817116337
20
126.281150124
11
207.963523708
21
130.069716104
0
LINE
5
96
100
AcDbEntity
8
Cut
6
ByLayer
62
1
370
-1
100
AcDbLine
10
207.963523708
20
130.069716104
11
206.853741755
21
132.748966748
0
LINE
5
97
100
AcDbEntity
8
Cut
6
ByLayer
62
1
370
-1
100
AcDbLine
10
206.853741755
20
132.748966748
11
197.707334383
21
128.960400768
0
CIRCLE
5
98
100
AcDbEntity
8
Cut
6
ByLayer
62
2
370
-1
100
AcDbCircle
10
155
20
245
40
40
0
CIRCLE
5
99
100
AcDbEntity
8
Cut
6
ByLayer
62
3
370
-1
100
AcDbCircle
10
155
20
245
40
110
0
CIRCLE
5
9A
100
AcDbEntity
8
Cut
6
ByLayer
62
5
370
-1
100
AcDbCircle
10
155
20
245
40
140
0
LINE
5
9B
100
AcDbEntity
8
0
6
ByLayer
62
256
370
-1
100
AcDbLine
10
155
20
205
11
155
21
285
0
LINE
5
9C
100
AcDbEntity
8
0
6
ByLayer
62
256
370
-1
100
AcDbLine
10
115
20
245
11
195
21
245
0
LINE
5
9D
100
AcDbEntity
8
0
6
ByLayer
62
256
370
-1
100
AcDbLine
10
232.781745931
20
322.781745931
11
239.852813742
21
329.852813742
0
LINE
5
9E
100
AcDbEntity
8
0
6
ByLayer
62
256
370
-1
100
AcDbLine
10
77.2182540695
20
322.781745931
11
70.1471862576
21
329.852813742
0
LINE
5
9F
100
AcDbEntity
8
0
6
ByLayer
62
256
370
-1
100
AcDbLine
10
77.2182540695
20
167.218254069
11
70.1471862576
21
160.147186258
0
LINE
5
A0
100
AcDbEntity
8
0
6
ByLayer
62
256
370
-1
100
AcDbLine
10
265
20
245
11
280
21
245
0
LINE
5
A1
100
AcDbEntity
8
0
6
ByLayer
62
256
370
-1
100
AcDbLine
10
155
20
355
11
155
21
370
0
LINE
5
A2
100
AcDbEntity
8
0
6
ByLayer
62
256
370
-1
100
AcDbLine
10
45
20
245
11
30
21
245
0
LINE
5
A3
100
AcDbEntity
8
0
6
ByLayer
62
256
370
-1
100
AcDbLine
10
155
20
150
11
150
21
150
0
LINE
5
A4
100
AcDbEntity
8
0
6
ByLayer
62
256
370
-1
100
AcDbLine
10
150
20
150
11
155
21
135
0
LINE
5
A5
100
AcDbEntity
8
0
6
ByLayer
62
256
370
-1
100
AcDbLine
10
155
20
135
11
160
21
150
0
LINE
5
A6
100
AcDbEntity
8
0
6
ByLayer
62
256
370
-1
100
AcDbLine
10
160
20
150
11
155
21
150
0
LINE
5
A7
100
AcDbEntity
8
0
6
ByLayer
62
256
370
-1
100
AcDbLine
10
155
20
150
11
155
21
205
0
LINE
5
A8
100
AcDbEntity
8
0
6
ByLayer
62
256
370
-1
100
AcDbLine
10
156.919764708
20
135.016753533
11
157.00702674
21
130.017515057
0
LINE
5
A9
100
AcDbEntity
8
0
6
ByLayer
62
256
370
-1
100
AcDbLine
10
158.838944637
20
135.067009028
11
159.013442121
21
130.070054893
0
LINE
5
AA
100
AcDbEntity
8
0
6
ByLayer
62
256
370
-1
100
AcDbLine
10
160.756955187
20
135.150751177
11
161.018634968
21
130.157603503
0
LINE
5
AB
100
AcDbEntity
8
0
6
ByLayer
62
256
370
-1
100
AcDbLine
10
162.673212112
20
135.267954471
11
163.021994481
21
130.28013422
0
LINE
5
AC
100
AcDbEntity
8
0
6
ByLayer
62
256
370
-1
100
AcDbLine
10
164.587131702
20
135.41858321
11
165.240799773
21
127.947122974
0
LINE
5
AD
100
AcDbEntity
8
0
6
ByLayer
62
256
370
-1
100
AcDbLine
10
166.498130959
20
135.602591509
11
167.020773276
21
130.629982033
0
LINE
5
AE
100
AcDbEntity
8
0
6
ByLayer
62
256
370
-1
100
AcDbLine
10
168.405627775
20
135.819923319
11
169.014974492
21
130.857192561
0
LINE
5
AF
100
AcDbEntity
8
0
6
ByLayer
62
256
370
-1
100
AcDbLine
10
170.309041106
20
136.070512438
11
171.00490661
21
131.119172095
0
LINE
5
B0
100
AcDbEntity
8
0
6
ByLayer
62
256
370
-1
100
AcDbLine
10
172.207791154
20
136.354282535
11
172.98996348
21
131.415840832
0
LINE
5
B1
100
AcDbEntity
8
0
6
ByLayer
62
256
370
-1
100
AcDbLine
10
174.101299543
20
136.671147169
11
175.403660876
21
129.285089021
0
LINE
5
B2
100
AcDbEntity
8
0
6
ByLayer
62
256
370
-1
100
AcDbLine
10
175.988989491
20
137.021009821
11
176.943034468
21
132.112873904
0
LINE
5
B3
100
AcDbEntity
8
0
6
ByLayer
62
256
370
-1
100
AcDbLine
10
177.87028599
20
137.403763919
11
178.909844444
21
132.513025916
0
LINE
5
B4
100
AcDbEntity
8
0
6
ByLayer
62
256
370
-1
100
AcDbLine
10
179.744615978
20
137.819292874
11
180.86937125
21
132.94744255
0
LINE
5
B5
100
AcDbEntity
8
0
6
ByLayer
62
256
370
-1
100
AcDbLine
10
181.611408516
20
138.26747011
11
182.821017994
21
133.415991478
0
LINE
5
B6
100
AcDbEntity
8
0
6
ByLayer
62
256
370
-1
100
AcDbLine
10
183.470094961
20
138.748159108
11
185.4112378
21
131.503715411
0
LINE
5
B7
100
AcDbEntity
8
0
6
ByLayer
62
256
370
-1
100
AcDbLine
10
185.32010914
20
139.261213447
11
186.698295919
21
134.454904967
0
LINE
5
B8
100
AcDbEntity
8
0
6
ByLayer
62
256
370
-1
100
AcDbLine
10
187.16088752
20
139.806476844
11
188.622746043
21
135.024953064
0
LINE
5
B9
100
AcDbEntity
8
0
6
ByLayer
62
256
370
-1
100
AcDbLine
10
188.991869381
20
140.383783208
11
190.536954353
21
135.628500626
0
LINE
5
BA
100
AcDbEntity
8
0
6
ByLayer
62
256
370
-1
100
AcDbLine
10
190.81249699
20
140.992956684
11
192.440337763
21
136.265363806
0
LINE
5
BB
100
AcDbEntity
8
0
6
ByLayer
62
256
370
-1
100
AcDbLine
10
192.622215766
20
141.633811714
11
195.187366841
21
134.586117058
0
LINE
5
BC
100
AcDbEntity
8
0
6
ByLayer
62
256
370
-1
100
AcDbLine
10
194.42047445
20
142.306153085
11
196.212314198
21
137.638250953
0
LINE
5
BD
100
AcDbEntity
8
0
6
ByLayer
62
256
370
-1
100
AcDbLine
10
196.206725276
20
143.009775998
11
198.079758243
21
138.373856725
0
LINE
5
BE
100
AcDbEntity
8
0
6
ByLayer
62
256
370
-1
100
AcDbLine
10
197.980424134
20
143.74446612
11
199.934079776
21
139.141941853
0
LINE
5
BF
100
AcDbEntity
8
0
6
ByLayer
62
256
370
-1
100
AcDbLine
10
199.741030738
20
144.509999659
11
201.774713954
21
139.942272371
0
LINE
5
C0
100
AcDbEntity
8
0
6
ByLayer
62
256
370
-1
100
AcDbLine
10
201.488008791
20
145.306143426
11
204.657645755
21
138.508835023
0
LINE
5
C1
100
AcDbEntity
8
0
6
ByLayer
62
256
370
-1
100
AcDbLine
10
203.220826147
20
146.132654907
11
205.412681881
21
141.638684676
0
LINE
5
C2
100
AcDbEntity
8
0
6
ByLayer
62
256
370
-1
100
AcDbLine
10
204.938954971
20
146.989282339
11
207.20890747
21
142.534249718
0
LINE
5
C3
100
AcDbEntity
8
0
6
ByLayer
62
256
370
-1
100
AcDbLine
10
206.641871906
20
147.875764786
11
208.98922972
21
143.461026821
0
LINE
5
C4
100
AcDbEntity
8
0
6
ByLayer
62
256
370
-1
100
AcDbLine
10
208.329058227
20
148.791832215
11
210.753106328
21
144.418733679
0
LINE
5
C5
100
AcDbEntity
8
0
6
ByLayer
62
256
370
-1
100
AcDbLine
10
210
20
149.737205584
11
213.75
21
143.242015055
0
LINE
5
C6
100
AcDbEntity
8
0
6
ByLayer
62
256
370
-1
100
AcDbLine
10
211.65418824
20
150.711596923
11
214.229378615
21
146.425760419
0
LINE
5
C7
100
AcDbEntity
8
0
6
ByLayer
62
256
370
-1
100
AcDbLine
10
213.291119066
20
151.714709423
11
215.940715387
21
147.474468942
0
LINE
5
C8
100
AcDbEntity
8
0
6
ByLayer
62
256
370
-1
100
AcDbLine
10
214.910293852
20
152.746237526
11
217.633489027
21
148.552884686
0
LINE
5
C9
100
AcDbEntity
8
0
6
ByLayer
62
256
370
-1
100
AcDbLine
10
216.511219382
20
153.805867019
11
219.307183899
21
149.660679156
0
LINE
5
CA
100
AcDbEntity
8
0
6
ByLayer
62
256
370
-1
100
AcDbLine
10
218.093407999
20
154.893275128
11
222.395231271
21
148.749634796
0
LINE
5
CB
100
AcDbEntity
8
0
6
ByLayer
62
256
370
-1
100
AcDbLine
10
219.656377752
20
156.008130619
11
222.595304014
21
151.963045647
0
LINE
5
CC
100
AcDbEntity
8
0
6
ByLayer
62
256
370
-1
100
AcDbLine
10
221.199652547
20
157.150093895
11
224.208727662
21
153.156916345
0
LINE
5
CD
100
AcDbEntity
8
0
6
ByLayer
62
256
370
-1
100
AcDbLine
10
222.722762286
20
158.318817103
11
225.801069662
21
154.378763335
0
LINE
5
CE
100
AcDbEntity
8
0
6
ByLayer
62
256
370
-1
100
AcDbLine
10
224.225243015
20
159.51394424
11
227.371844971
21
155.628214432
0
LINE
5
CF
100
AcDbEntity
8
0
6
ByLayer
62
256
370
-1
100
AcDbLine
10
225.706637066
20
160.735111257
11
230.527544138
21
154.989777934
0
LINE
5
D0
100
AcDbEntity
8
0
6
ByLayer
62
256
370
-1
100
AcDbLine
10
227.166493189
20
161.981946175
11
230.446788334
21
158.208398274
0
LINE
5
D1
100
AcDbEntity
8
0
6
ByLayer
62
256
370
-1
100
AcDbLine
10
228.604366699
20
163.254069197
11
231.950019731
21
159.53834507
0
LINE
5
D2
100
AcDbEntity
8
0
6
ByLayer
62
256
370
-1
100
AcDbLine
10
230.019819607
20
164.551092822
11
233.429811407
21
160.894324314
0
LINE
5
D3
100
AcDbEntity
8
0
6
ByLayer
62
256
370
-1
100
AcDbLine
10
231.41242075
20
165.872621963
11
234.885712603
21
162.275922961
0
LINE
5
D4
100
AcDbEntity
8
0
6
ByLayer
62
256
370
-1
100
AcDbLine
10
234.127378037
20
168.58757925
11
237.724077039
21
165.114287397
0
LINE
5
D5
100
AcDbEntity
8
0
6
ByLayer
62
256
370
-1
100
AcDbLine
10
235.448907178
20
169.980180393
11
239.105675686
21
166.570188593
0
LINE
5
D6
100
AcDbEntity
8
0
6
ByLayer
62
256
370
-1
100
AcDbLine
10
236.745930803
20
171.395633301
11
240.46165493
21
168.049980269
0
LINE
5
D7
100
AcDbEntity
8
0
6
ByLayer
62
256
370
-1
100
AcDbLine
10
238.018053825
20
172.833506811
11
241.791601726
21
169.553211666
0
LINE
5
D8
100
AcDbEntity
8
0
6
ByLayer
62
256
370
-1
100
AcDbLine
10
239.264888743
20
174.293362934
11
245.010222066
21
169.472455862
0
LINE
5
D9
100
AcDbEntity
8
0
6
ByLayer
62
256
370
-1
100
AcDbLine
10
240.48605576
20
175.774756985
11
244.371785568
21
172.628155029
0
LINE
5
DA
100
AcDbEntity
8
0
6
ByLayer
62
256
370
-1
100
AcDbLine
10
241.681182897
20
177.277237714
11
245.621236665
21
174.198930338
0
LINE
5
DB
100
AcDbEntity
8
0
6
ByLayer
62
256
370
-1
100
AcDbLine
10
242.849906105
20
178.800347453
11
246.843083655
21
175.791272338
0
LINE
5
DC
100
AcDbEntity
8
0
6
ByLayer
62
256
370
-1
100
AcDbLine
10
243.991869381
20
180.343622248
11
248.036954353
21
177.404695986
0
LINE
5
DD
100
AcDbEntity
8
0
6
ByLayer
62
256
370
-1
100
AcDbLine
10
245.106724872
20
181.906592001
11
251.250365204
21
177.604768729
0
LINE
5
DE
100
AcDbEntity
8
0
6
ByLayer
62
256
370
-1
100
AcDbLine
10
246.194132981
20
183.488780618
11
250.339320844
21
180.692816101
0
LINE
5
DF
100
AcDbEntity
8
0
6
ByLayer
62
256
370
-1
100
AcDbLine
10
247.253762474
20
185.089706148
11
251.447115314
21
182.366510973
0
LINE
5
E0
100
AcDbEntity
8
0
6
ByLayer
62
256
370
-1
100
AcDbLine
10
248.285290577
20
186.708880934
11
252.525531058
21
184.059284613
0
LINE
5
E1
100
AcDbEntity
8
0
6
ByLayer
62
256
370
-1
100
AcDbLine
10
249.288403077
20
188.34581176
11
253.574239581
21
185.770621385
0
LINE
5
E2
100
AcDbEntity
8
0
6
ByLayer
62
256
370
-1
100
AcDbLine
10
250.262794416
20
190
11
256.757984945
21
186.25
0
LINE
5
E3
100
AcDbEntity
8
0
6
ByLayer
62
256
370
-1
100
AcDbLine
10
251.208167785
20
191.670941773
11
255.581266321
21
189.246893672
0
LINE
5
E4
100
AcDbEntity
8
0
6
ByLayer
62
256
370
-1
100
AcDbLine
10
252.124235214
20
193.358128094
11
256.538973179
21
191.01077028
0
LINE
5
E5
100
AcDbEntity
8
0
6
ByLayer
62
256
370
-1
100
AcDbLine
10
253.010717661
20
195.061045029
11
257.465750282
21
192.79109253
0
LINE
5
E6
100
AcDbEntity
8
0
6
ByLayer
62
256
370
-1
100
AcDbLine
10
253.867345093
20
196.779173853
11
258.361315324
21
194.587318119
0
LINE
5
E7
100
AcDbEntity
8
0
6
ByLayer
62
256
370
-1
100
AcDbLine
10
254.693856574
20
198.511991209
11
261.491164977
21
195.342354245
0
LINE
5
E8
100
AcDbEntity
8
0
6
ByLayer
62
256
370
-1
100
AcDbLine
10
255.490000341
20
200.258969262
11
260.057727629
21
198.225286046
0
LINE
5
E9
100
AcDbEntity
8
0
6
ByLayer
62
256
370
-1
100
AcDbLine
10
256.25553388
20
202.019575866
11
260.858058147
21
200.065920224
0
LINE
5
EA
100
AcDbEntity
8
0
6
ByLayer
62
256
370
-1
100
AcDbLine
10
256.990224002
20
203.793274724
11
261.626143275
21
201.920241757
0
LINE
5
EB
100
AcDbEntity
8
0
6
ByLayer
62
256
370
-1
100
AcDbLine
10
257.693846915
20
205.57952555
11
262.361749047
21
203.787685802
0
LINE
5
EC
100
AcDbEntity
8
0
6
ByLayer
62
256
370
-1
100
AcDbLine
10
258.366188286
20
207.377784234
11
265.413882942
21
204.812633159
0
LINE
5
ED
100
AcDbEntity
8
0
6
ByLayer
62
256
370
-1
100
AcDbLine
10
259.007043316
20
209.18750301
11
263.734636194
21
207.559662237
0
LINE
5
EE
100
AcDbEntity
8
0
6
ByLayer
62
256
370
-1
100
AcDbLine
10
259.616216792
20
211.008130619
11
264.371499374
21
209.463045647
0
LINE
5
EF
100
AcDbEntity
8
0
6
ByLayer
62
256
370
-1
100
AcDbLine
10
260.193523156
20
212.83911248
11
264.975046936
21
211.377253957
0
LINE
5
F0
100
AcDbEntity
8
0
6
ByLayer
62
256
370
-1
100
AcDbLine
10
260.738786553
20
214.67989086
11
265.545095033
21
213.301704081
0
LINE
5
F1
100
AcDbEntity
8
0
6
ByLayer
62
256
370
-1
100
AcDbLine
10
261.251840892
20
216.529905039
11
268.496284589
21
214.5887622
0
LINE
5
F2
100
AcDbEntity
8
0
6
ByLayer
62
256
370
-1
100
AcDbLine
10
261.73252989
20
218.388591484
11
266.584008522
21
217.178982006
0
LINE
5
F3
100
AcDbEntity
8
0
6
ByLayer
62
256
370
-1
100
AcDbLine
10
262.180707126
20
220.255384022
11
267.05255745
21
219.13062875
0
LINE
5
F4
100
AcDbEntity
8
0
6
ByLayer
62
256
370
-1
100
AcDbLine
10
262.596236081
20
222.12971401
11
267.486974084
21
221.090155556
0
LINE
5
F5
100
AcDbEntity
8
0
6
ByLayer
62
256
370
-1
100
AcDbLine
10
262.978990179
20
224.011010509
11
267.887126096
21
223.056965532
0
LINE
5
F6
100
AcDbEntity
8
0
6
ByLayer
62
256
370
-1
100
AcDbLine
10
263.328852831
20
225.898700457
11
270.714910979
21
224.596339124
0
LINE
5
F7
100
AcDbEntity
8
0
6
ByLayer
62
256
370
-1
100
AcDbLine
10
263.645717465
20
227.792208846
11
268.584159168
21
227.01003652
0
LINE
5
F8
100
AcDbEntity
8
0
6
ByLayer
62
256
370
-1
100
AcDbLine
10
263.929487562
20
229.690958894
11
268.880827905
21
228.99509339
0
LINE
5
F9
100
AcDbEntity
8
0
6
ByLayer
62
256
370
-1
100
AcDbLine
10
264.180076681
20
231.594372225
11
269.142807439
21
230.985025508
0
LINE
5
FA
100
AcDbEntity
8
0
6
ByLayer
62
256
370
-1
100
AcDbLine
10
264.397408491
20
233.501869041
11
269.370017967
21
232.979226724
0
LINE
5
FB
100
AcDbEntity
8
0
6
ByLayer
62
256
370
-1
100
AcDbLine
10
264.58141679
20
235.412868298
11
272.052877026
21
234.759200227
0
LINE
5
FC
100
AcDbEntity
8
0
6
ByLayer
62
256
370
-1
100
AcDbLine
10
264.732045529
20
237.326787888
11
269.71986578
21
236.978005519
0
LINE
5
FD
100
AcDbEntity
8
0
6
ByLayer
62
256
370
-1
100
AcDbLine
10
264.849248823
20
239.243044813
11
269.842396497
21
238.981365032
0
LINE
5
FE
100
AcDbEntity
8
0
6
ByLayer
62
256
370
-1
100
AcDbLine
10
264.932990972
20
241.161055363
11
269.929945107
21
240.986557879
0
LINE
5
FF
100
AcDbEntity
8
0
6
ByLayer
62
256
370
-1
100
AcDbLine
10
264.983246467
20
243.080235292
11
269.982484943
21
242.99297326
0
LINE
5
100
100
AcDbEntity
8
0
6
ByLayer
62
256
370
-1
100
AcDbLine
10
264.983246467
20
246.919764708
11
269.982484943
21
247.00702674
0
LINE
5
101
100
AcDbEntity
8
0
6
ByLayer
62
256
370
-1
100
AcDbLine
10
264.932990972
20
248.838944637
11
269.929945107
21
249.013442121
0
LINE
5
102
100
AcDbEntity
8
0
6
ByLayer
62
256
370
-1
100
AcDbLine
10
264.849248823
20
250.756955187
11
269.842396497
21
251.018634968
0
LINE
5
103
100
AcDbEntity
8
0
6
ByLayer
62
256
370
-1
100
AcDbLine
10
264.732045529
20
252.673212112
11
269.71986578
21
253.021994481
0
LINE
5
104
100
AcDbEntity
8
0
6
ByLayer
62
256
370
-1
100
AcDbLine
10
264.58141679
20
254.587131702
11
272.052877026
21
255.240799773
0
LINE
5
105
100
AcDbEntity
8
0
6
ByLayer
62
256
370
-1
100
AcDbLine
10
264.397408491
20
256.498130959
11
269.370017967
21
257.020773276
0
LINE
5
106
100
AcDbEntity
8
0
6
ByLayer
62
256
370
-1
100
AcDbLine
10
264.180076681
20
258.405627775
11
269.142807439
21
259.014974492
0
LINE
5
107
100
AcDbEntity
8
0
6
ByLayer
62
256
370
-1
100
AcDbLine
10
263.929487562
20
260.309041106
11
268.880827905
21
261.00490661
0
LINE
5
108
100
AcDbEntity
8
0
6
ByLayer
62
256
370
-1
100
AcDbLine
10
263.645717465
20
262.207791154
11
268.584159168
21
262.98996348
0
LINE
5
109
100
AcDbEntity
8
0
6
ByLayer
62
256
370
-1
100
AcDbLine
10
263.328852831
20
264.101299543
11
270.714910979
21
265.403660876
0
LINE
5
10A
100
AcDbEntity
8
0
6
ByLayer
62
256
370
-1
100
AcDbLine
10
262.978990179
20
265.988989491
11
267.887126096
21
266.943034468
0
LINE
5
10B
100
AcDbEntity
8
0
6
ByLayer
62
256
370
-1
100
AcDbLine
10
262.596236081
20
267.87028599
11
267.486974084
21
268.909844444
0
LINE
5
10C
100
AcDbEntity
8
0
6
ByLayer
62
256
370
-1
100
AcDbLine
10
262.180707126
20
269.744615978
11
267.05255745
21
270.86937125
0
LINE
5
10D
100
AcDbEntity
8
0
6
ByLayer
62
256
370
-1
100
AcDbLine
10
261.73252989
20
271.611408516
11
266.584008522
21
272.821017994
0
LINE
5
10E
100
AcDbEntity
8
0
6
ByLayer
62
256
370
-1
100
AcDbLine
10
261.251840892
20
273.470094961
11
268.496284589
21
275.4112378
0
LINE
5
10F
100
AcDbEntity
8
0
6
ByLayer
62
256
370
-1
100
AcDbLine
10
260.738786553
20
275.32010914
11
265.545095033
21
276.698295919
0
LINE
5
110
100
AcDbEntity
8
0
6
ByLayer
62
256
370
-1
100
AcDbLine
10
260.193523156
20
277.16088752
11
264.975046936
21
278.622746043
0
LINE
5
111
100
AcDbEntity
8
0
6
ByLayer
62
256
370
-1
100
AcDbLine
10
259.616216792
20
278.991869381
11
264.371499374
21
280.536954353
0
LINE
5
112
100
AcDbEntity
8
0
6
ByLayer
62
256
370
-1
100
AcDbLine
10
259.007043316
20
280.81249699
11
263.734636194
21
282.440337763
0
LINE
5
113
100
AcDbEntity
8
0
6
ByLayer
62
256
370
-1
100
AcDbLine
10
258.366188286
20
282.622215766
11
265.413882942
21
285.187366841
0
LINE
5
114
100
AcDbEntity
8
0
6
ByLayer
62
256
370
-1
100
AcDbLine
10
257.693846915
20
284.42047445
11
262.361749047
21
286.212314198
0
LINE
5
115
100
AcDbEntity
8
0
6
ByLayer
62
256
370
-1
100
AcDbLine
10
256.990224002
20
286.206725276
11
261.626143275
21
288.079758243
0
LINE
5
116
100
AcDbEntity
8
0
6
ByLayer
62
256
370
-1
100
AcDbLine
10
256.25553388
20
287.980424134
11
260.858058147
21
289.934079776
0
LINE
5
117
100
AcDbEntity
8
0
6
ByLayer
62
256
370
-1
100
AcDbLine
10
255.490000341
20
289.741030738
11
260.057727629
21
291.774713954
0
LINE
5
118
100
AcDbEntity
8
0
6
ByLayer
62
256
370
-1
100
AcDbLine
10
254.693856574
20
291.488008791
11
261.491164977
21
294.657645755
0
LINE
5
119
100
AcDbEntity
8
0
6
ByLayer
62
256
370
-1
100
AcDbLine
10
253.867345093
20
293.220826147
11
258.361315324
21
295.412681881
0
LINE
5
11A
100
AcDbEntity
8
0
6
ByLayer
62
256
370
-1
100
AcDbLine
10
253.010717661
20
294.938954971
11
257.465750282
21
297.20890747
0
LINE
5
11B
100
AcDbEntity
8
0
6
ByLayer
62
256
370
-1
100
AcDbLine
10
252.124235214
20
296.641871906
11
256.538973179
21
298.98922972
0
LINE
5
11C
100
AcDbEntity
8
0
6
ByLayer
62
256
370
-1
100
AcDbLine
10
251.208167785
20
298.329058227
11
255.581266321
21
300.753106328
0
LINE
5
11D
100
AcDbEntity
8
0
6
ByLayer
62
256
370
-1
100
AcDbLine
10
250.262794416
20
300
11
256.757984945
21
303.75
0
LINE
5
11E
100
AcDbEntity
8
0
6
ByLayer
62
256
370
-1
100
AcDbLine
10
249.288403077
20
301.65418824
11
253.574239581
21
304.229378615
0
LINE
5
11F
100
AcDbEntity
8
0
6
ByLayer
62
256
370
-1
100
AcDbLine
10
248.285290577
20
303.291119066
11
252.525531058
21
305.940715387
0
LINE
5
120
100
AcDbEntity
8
0
6
ByLayer
62
256
370
-1
100
AcDbLine
10
247.253762474
20
304.910293852
11
251.447115314
21
307.633489027
0
LINE
5
121
100
AcDbEntity
8
0
6
ByLayer
62
256
370
-1
100
AcDbLine
10
246.194132981
20
306.511219382
11
250.339320844
21
309.307183899
0
LINE
5
122
100
AcDbEntity
8
0
6
ByLayer
62
256
370
-1
100
AcDbLine
10
245.106724872
20
308.093407999
11
251.250365204
21
312.395231271
0
LINE
5
123
100
AcDbEntity
8
0
6
ByLayer
62
256
370
-1
100
AcDbLine
10
243.991869381
20
309.656377752
11
248.036954353
21
312.595304014
0
LINE
5
124
100
AcDbEntity
8
0
6
ByLayer
62
256
370
-1
100
AcDbLine
10
242.849906105
20
311.199652547
11
246.843083655
21
314.208727662
0
LINE
5
125
100
AcDbEntity
8
0
6
ByLayer
62
256
370
-1
100
AcDbLine
10
241.681182897
20
312.722762286
11
245.621236665
21
315.801069662
0
LINE
5
126
100
AcDbEntity
8
0
6
ByLayer
62
256
370
-1
100
AcDbLine
10
240.48605576
20
314.225243015
11
244.371785568
21
317.371844971
0
LINE
5
127
100
AcDbEntity
8
0
6
ByLayer
62
256
370
-1
100
AcDbLine
10
239.264888743
20
315.706637066
11
245.010222066
21
320.527544138
0
LINE
5
128
100
AcDbEntity
8
0
6
ByLayer
62
256
370
-1
100
AcDbLine
10
238.018053825
20
317.166493189
11
241.791601726
21
320.446788334
0
LINE
5
129
100
AcDbEntity
8
0
6
ByLayer
62
256
370
-1
100
AcDbLine
10
236.745930803
20
318.604366699
11
240.46165493
21
321.950019731
0
LINE
5
12A
100
AcDbEntity
8
0
6
ByLayer
62
256
370
-1
100
AcDbLine
10
235.448907178
20
320.019819607
11
239.105675686
21
323.429811407
0
LINE
5
12B
100
AcDbEntity
8
0
6
ByLayer
62
256
370
-1
100
AcDbLine
10
234.127378037
20
321.41242075
11
237.724077039
21
324.885712603
0
LINE
5
12C
100
AcDbEntity
8
0
6
ByLayer
62
256
370
-1
100
AcDbLine
10
231.41242075
20
324.127378037
11
234.885712603
21
327.724077039
0
LINE
5
12D
100
AcDbEntity
8
0
6
ByLayer
62
256
370
-1
100
AcDbLine
10
230.019819607
20
325.448907178
11
233.429811407
21
329.105675686
0
LINE
5
12E
100
AcDbEntity
8
0
6
ByLayer
62
256
370
-1
100
AcDbLine
10
228.604366699
20
326.745930803
11
231.950019731
21
330.46165493
0
LINE
5
12F
100
AcDbEntity
8
0
6
ByLayer
62
256
370
-1
100
AcDbLine
10
227.166493189
20
328.018053825
11
230.446788334
21
331.791601726
0
LINE
5
130
100
AcDbEntity
8
0
6
ByLayer
62
256
370
-1
100
AcDbLine
10
225.706637066
20
329.264888743
11
230.527544138
21
335.010222066
0
LINE
5
131
100
AcDbEntity
8
0
6
ByLayer
62
256
370
-1
100
AcDbLine
10
224.225243015
20
330.48605576
11
227.371844971
21
334.371785568
0
LINE
5
132
100
AcDbEntity
8
0
6
ByLayer
62
256
370
-1
100
AcDbLine
10
222.722762286
20
331.681182897
11
225.801069662
21
335.621236665
0
LINE
5
133
100
AcDbEntity
8
0
6
ByLayer
62
256
370
-1
100
AcDbLine
10
221.199652547
20
332.849906105
11
224.208727662
21
336.843083655
0
LINE
5
134
100
AcDbEntity
8
0
6
ByLayer
62
256
370
-1
100
AcDbLine
10
219.656377752
20
333.991869381
11
222.595304014
21
338.036954353
0
LINE
5
135
100
AcDbEntity
8
0
6
ByLayer
62
256
370
-1
100
AcDbLine
10
218.093407999
20
335.106724872
11
222.395231271
21
341.250365204
0
LINE
5
136
100
AcDbEntity
8
0
6
ByLayer
62
256
370
-1
100
AcDbLine
10
216.511219382
20
336.194132981
11
219.307183899
21
340.339320844
0
LINE
5
137
100
AcDbEntity
8
0
6
ByLayer
62
256
370
-1
100
AcDbLine
10
214.910293852
20
337.253762474
11
217.633489027
21
341.447115314
0
LINE
5
138
100
AcDbEntity
8
0
6
ByLayer
62
256
370
-1
100
AcDbLine
10
213.291119066
20
338.285290577
11
215.940715387
21
342.525531058
0
LINE
5
139
100
AcDbEntity
8
0
6
ByLayer
62
256
370
-1
100
AcDbLine
10
211.65418824
20
339.288403077
11
214.229378615
21
343.574239581
0
LINE
5
13A
100
AcDbEntity
8
0
6
ByLayer
62
256
370
-1
100
AcDbLine
10
210
20
340.262794416
11
213.75
21
346.757984945
0
LINE
5
13B
100
AcDbEntity
8
0
6
ByLayer
62
256
370
-1
100
AcDbLine
10
208.329058227
20
341.208167785
11
210.753106328
21
345.581266321
0
LINE
5
13C
100
AcDbEntity
8
0
6
ByLayer
62
256
370
-1
100
AcDbLine
10
206.641871906
20
342.124235214
11
208.98922972
21
346.538973179
0
LINE
5
13D
100
AcDbEntity
8
0
6
ByLayer
62
256
370
-1
100
AcDbLine
10
204.938954971
20
343.010717661
11
207.20890747
21
347.465750282
0
LINE
5
13E
100
AcDbEntity
8
0
6
ByLayer
62
256
370
-1
100
AcDbLine
10
203.220826147
20
343.867345093
11
205.412681881
21
348.361315324
0
LINE
5
13F
100
AcDbEntity
8
0
6
ByLayer
62
256
370
-1
100
AcDbLine
10
201.488008791
20
344.693856574
11
204.657645755
21
351.491164977
0
LINE
5
140
100
AcDbEntity
8
0
6
ByLayer
62
256
370
-1
100
AcDbLine
10
199.741030738
20
345.490000341
11
201.774713954
21
350.057727629
0
LINE
5
141
100
AcDbEntity
8
0
6
ByLayer
62
256
370
-1
100
AcDbLine
10
197.980424134
20
346.25553388
11
199.934079776
21
350.858058147
0
LINE
5
142
100
AcDbEntity
8
0
6
ByLayer
62
256
370
-1
100
AcDbLine
10
196.206725276
20
346.990224002
11
198.079758243
21
351.626143275
0
LINE
5
143
100
AcDbEntity
8
0
6
ByLayer
62
256
370
-1
100
AcDbLine
10
194.42047445
20
347.693846915
11
196.212314198
21
352.361749047
0
LINE
5
144
100
AcDbEntity
8
0
6
ByLayer
62
256
370
-1
100
AcDbLine
10
192.622215766
20
348.366188286
11
195.187366841
21
355.413882942
0
LINE
5
145
100
AcDbEntity
8
0
6
ByLayer
62
256
370
-1
100
AcDbLine
10
190.81249699
20
349.007043316
11
192.440337763
21
353.734636194
0
LINE
5
146
100
AcDbEntity
8
0
6
ByLayer
62
256
370
-1
100
AcDbLine
10
188.991869381
20
349.616216792
11
190.536954353
21
354.371499374
0
LINE
5
147
100
AcDbEntity
8
0
6
ByLayer
62
256
370
-1
100
AcDbLine
10
187.16088752
20
350.193523156
11
188.622746043
21
354.975046936
0
LINE
5
148
100
AcDbEntity
8
0
6
ByLayer
62
256
370
-1
100
AcDbLine
10
185.32010914
20
350.738786553
11
186.698295919
21
355.545095033
0
LINE
5
149
100
AcDbEntity
8
0
6
ByLayer
62
256
370
-1
100
AcDbLine
10
183.470094961
20
351.251840892
11
185.4112378
21
358.496284589
0
LINE
5
14A
100
AcDbEntity
8
0
6
ByLayer
62
256
370
-1
100
AcDbLine
10
181.611408516
20
351.73252989
11
182.821017994
21
356.584008522
0
LINE
5
14B
100
AcDbEntity
8
0
6
ByLayer
62
256
370
-1
100
AcDbLine
10
179.744615978
20
352.180707126
11
180.86937125
21
357.05255745
0
LINE
5
14C
100
AcDbEntity
8
0
6
ByLayer
62
256
370
-1
100
AcDbLine
10
177.87028599
20
352.596236081
11
178.909844444
21
357.486974084
0
LINE
5
14D
100
AcDbEntity
8
0
6
ByLayer
62
256
370
-1
100
AcDbLine
10
175.988989491
20
352.978990179
11
176.943034468
21
357.887126096
0
LINE
5
14E
100
AcDbEntity
8
0
6
ByLayer
62
256
370
-1
100
AcDbLine
10
174.101299543
20
353.328852831
11
175.403660876
21
360.714910979
0
LINE
5
14F
100
AcDbEntity
8
0
6
ByLayer
62
256
370
-1
100
AcDbLine
10
172.207791154
20
353.645717465
11
172.98996348
21
358.584159168
0
LINE
5
150
100
AcDbEntity
8
0
6
ByLayer
62
256
370
-1
100
AcDbLine
10
170.309041106
20
353.929487562
11
171.00490661
21
358.880827905
0
LINE
5
151
100
AcDbEntity
8
0
6
ByLayer
62
256
370
-1
100
AcDbLine
10
168.405627775
20
354.180076681
11
169.014974492
21
359.142807439
0
LINE
5
152
100
AcDbEntity
8
0
6
ByLayer
62
256
370
-1
100
AcDbLine
10
166.498130959
20
354.397408491
11
167.020773276
21
359.370017967
0
LINE
5
153
100
AcDbEntity
8
0
6
ByLayer
62
256
370
-1
100
AcDbLine
10
164.587131702
20
354.58141679
11
165.240799773
21
362.052877026
0
LINE
5
154
100
AcDbEntity
8
0
6
ByLayer
62
256
370
-1
100
AcDbLine
10
162.673212112
20
354.732045529
11
163.021994481
21
359.71986578
0
LINE
5
155
100
AcDbEntity
8
0
6
ByLayer
62
256
370
-1
100
AcDbLine
10
160.756955187
20
354.849248823
11
161.018634968
21
359.842396497
0
LINE
5
156
100
AcDbEntity
8
0
6
ByLayer
62
256
370
-1
100
AcDbLine
10
158.838944637
20
354.932990972
11
159.013442121
21
359.929945107
0
LINE
5
157
100
AcDbEntity
8
0
6
ByLayer
62
256
370
-1
100
AcDbLine
10
156.919764708
20
354.983246467
11
157.00702674
21
359.982484943
0
LINE
5
158
100
AcDbEntity
8
0
6
ByLayer
62
256
370
-1
100
AcDbLine
10
153.080235292
20
354.983246467
11
152.99297326
21
359.982484943
0
LINE
5
159
100
AcDbEntity
8
0
6
ByLayer
62
256
370
-1
100
AcDbLine
10
151.161055363
20
354.932990972
11
150.986557879
21
359.929945107
0
LINE
5
15A
100
AcDbEntity
8
0
6
ByLayer
62
256
370
-1
100
AcDbLine
10
149.243044813
20
354.849248823
11
148.981365032
21
359.842396497
0
LINE
5
15B
100
AcDbEntity
8
0
6
ByLayer
62
256
370
-1
100
AcDbLine
10
147.326787888
20
354.732045529
11
146.978005519
21
359.71986578
0
LINE
5
15C
100
AcDbEntity
8
0
6
ByLayer
62
256
370
-1
100
AcDbLine
10
145.412868298
20
354.58141679
11
144.759200227
21
362.052877026
0
LINE
5
15D
100
AcDbEntity
8
0
6
ByLayer
62
256
370
-1
100
AcDbLine
10
143.501869041
20
354.397408491
11
142.979226724
21
359.370017967
0
LINE
5
15E
100
AcDbEntity
8
0
6
ByLayer
62
256
370
-1
100
AcDbLine
10
141.594372225
20
354.180076681
11
140.985025508
21
359.142807439
0
LINE
5
15F
100
AcDbEntity
8
0
6
ByLayer
62
256
370
-1
100
AcDbLine
10
139.690958894
20
353.929487562
11
138.99509339
21
358.880827905
0
LINE
5
160
100
AcDbEntity
8
0
6
ByLayer
62
256
370
-1
100
AcDbLine
10
137.792208846
20
353.645717465
11
137.01003652
21
358.584159168
0
LINE
5
161
100
AcDbEntity
8
0
6
ByLayer
62
256
370
-1
100
AcDbLine
10
135.898700457
20
353.328852831
11
134.596339124
21
360.714910979
0
LINE
5
162
100
AcDbEntity
8
0
6
ByLayer
62
256
370
-1
100
AcDbLine
10
134.011010509
20
352.978990179
11
133.056965532
21
357.887126096
0
LINE
5
163
100
AcDbEntity
8
0
6
ByLayer
62
256
370
-1
100
AcDbLine
10
132.12971401
20
352.596236081
11
131.090155556
21
357.486974084
0
LINE
5
164
100
AcDbEntity
8
0
6
ByLayer
62
256
370
-1
100
AcDbLine
10
130.255384022
20
352.180707126
11
129.13062875
21
357.05255745
0
LINE
5
165
100
AcDbEntity
8
0
6
ByLayer
62
256
370
-1
100
AcDbLine
10
128.388591484
20
351.73252989
11
127.178982006
21
356.584008522
0
LINE
5
166
100
AcDbEntity
8
0
6
ByLayer
62
256
370
-1
100
AcDbLine
10
126.529905039
20
351.251840892
11
124.5887622
21
358.496284589
0
LINE
5
167
100
AcDbEntity
8
0
6
ByLayer
62
256
370
-1
100
AcDbLine
10
124.67989086
20
350.738786553
11
123.301704081
21
355.545095033
0
LINE
5
168
100
AcDbEntity
8
0
6
ByLayer
62
256
370
-1
100
AcDbLine
10
122.83911248
20
350.193523156
11
121.377253957
21
354.975046936
0
LINE
5
169
100
AcDbEntity
8
0
6
ByLayer
62
256
370
-1
100
AcDbLine
10
121.008130619
20
349.616216792
11
119.463045647
21
354.371499374
0
LINE
5
16A
100
AcDbEntity
8
0
6
ByLayer
62
256
370
-1
100
AcDbLine
10
119.18750301
20
349.007043316
11
117.559662237
21
353.734636194
0
LINE
5
16B
100
AcDbEntity
8
0
6
ByLayer
62
256
370
-1
100
AcDbLine
10
117.377784234
20
348.366188286
11
114.812633159
21
355.413882942
0
LINE
5
16C
100
AcDbEntity
8
0
6
ByLayer
62
256
370
-1
100
AcDbLine
10
115.57952555
20
347.693846915
11
113.787685802
21
352.361749047
0
LINE
5
16D
100
AcDbEntity
8
0
6
ByLayer
62
256
370
-1
100
AcDbLine
10
113.793274724
20
346.990224002
11
111.920241757
21
351.626143275
0
LINE
5
16E
100
AcDbEntity
8
0
6
ByLayer
62
256
370
-1
100
AcDbLine
10
112.019575866
20
346.25553388
11
110.065920224
21
350.858058147
0
LINE
5
16F
100
AcDbEntity
8
0
6
ByLayer
62
256
370
-1
100
AcDbLine
10
110.258969262
20
345.490000341
11
108.225286046
21
350.057727629
0
LINE
5
170
100
AcDbEntity
8
0
6
ByLayer
62
256
370
-1
100
AcDbLine
10
108.511991209
20
344.693856574
11
105.342354245
21
351.491164977
0
LINE
5
171
100
AcDbEntity
8
0
6
ByLayer
62
256
370
-1
100
AcDbLine
10
106.779173853
20
343.867345093
11
104.587318119
21
348.361315324
0
LINE
5
172
100
AcDbEntity
8
0
6
ByLayer
62
256
370
-1
100
AcDbLine
10
105.061045029
20
343.010717661
11
102.79109253
21
347.465750282
0
LINE
5
173
100
AcDbEntity
8
0
6
ByLayer
62
256
370
-1
100
AcDbLine
10
103.358128094
20
342.124235214
11
101.01077028
21
346.538973179
0
LINE
5
174
100
AcDbEntity
8
0
6
ByLayer
62
256
370
-1
100
AcDbLine
10
101.670941773
20
341.208167785
11
99.2468936717
21
345.581266321
0
LINE
5
175
100
AcDbEntity
8
0
6
ByLayer
62
256
370
-1
100
AcDbLine
10
100
20
340.262794416
11
96.25
21
346.757984945
0
LINE
5
176
100
AcDbEntity
8
0
6
ByLayer
62
256
370
-1
100
AcDbLine
10
98.3458117599
20
339.288403077
11
95.7706213853
21
343.574239581
0
LINE
5
177
100
AcDbEntity
8
0
6
ByLayer
62
256
370
-1
100
AcDbLine
10
96.7088809343
20
338.285290577
11
94.0592846132
21
342.525531058
0
LINE
5
178
100
AcDbEntity
8
0
6
ByLayer
62
256
370
-1
100
AcDbLine
10
95.0897061483
20
337.253762474
11
92.3665109733
21
341.447115314
0
LINE
5
179
100
AcDbEntity
8
0
6
ByLayer
62
256
370
-1
100
AcDbLine
10
93.4887806182
20
336.194132981
11
90.6928161009
21
340.339320844
0
LINE
5
17A
100
AcDbEntity
8
0
6
ByLayer
62
256
370
-1
100
AcDbLine
10
91.9065920014
20
335.106724872
11
87.6047687288
21
341.250365204
0
LINE
5
17B
100
AcDbEntity
8
0
6
ByLayer
62
256
370
-1
100
AcDbLine
10
90.3436222478
20
333.991869381
11
87.4046959864
21
338.036954353
0
LINE
5
17C
100
AcDbEntity
8
0
6
ByLayer
62
256
370
-1
100
AcDbLine
10
88.8003474533
20
332.849906105
11
85.7912723375
21
336.843083655
0
LINE
5
17D
100
AcDbEntity
8
0
6
ByLayer
62
256
370
-1
100
AcDbLine
10
87.2772377142
20
331.681182897
11
84.1989303375
21
335.621236665
0
LINE
5
17E
100
AcDbEntity
8
0
6
ByLayer
62
256
370
-1
100
AcDbLine
10
85.7747569845
20
330.48605576
11
82.6281550293
21
334.371785568
0
LINE
5
17F
100
AcDbEntity
8
0
6
ByLayer
62
256
370
-1
100
AcDbLine
10
84.2933629345
20
329.264888743
11
79.4724558618
21
335.010222066
0
LINE
5
180
100
AcDbEntity
8
0
6
ByLayer
62
256
370
-1
100
AcDbLine
10
82.833506811
20
328.018053825
11
79.5532116661
21
331.791601726
0
LINE
5
181
100
AcDbEntity
8
0
6
ByLayer
62
256
370
-1
100
AcDbLine
10
81.3956333005
20
326.745930803
11
78.0499802687
21
330.46165493
0
LINE
5
182
100
AcDbEntity
8
0
6
ByLayer
62
256
370
-1
100
AcDbLine
10
79.9801803931
20
325.448907178
11
76.5701885928
21
329.105675686
0
LINE
5
183
100
AcDbEntity
8
0
6
ByLayer
62
256
370
-1
100
AcDbLine
10
78.5875792495
20
324.127378037
11
75.1142873972
21
327.724077039
0
LINE
5
184
100
AcDbEntity
8
0
6
ByLayer
62
256
370
-1
100
AcDbLine
10
75.8726219627
20
321.41242075
11
72.2759229611
21
324.885712603
0
LINE
5
185
100
AcDbEntity
8
0
6
ByLayer
62
256
370
-1
100
AcDbLine
10
74.5510928219
20
320.019819607
11
70.8943243138
21
323.429811407
0
LINE
5
186
100
AcDbEntity
8
0
6
ByLayer
62
256
370
-1
100
AcDbLine
10
73.2540691975
20
318.604366699
11
69.5383450701
21
321.950019731
0
LINE
5
187
100
AcDbEntity
8
0
6
ByLayer
62
256
370
-1
100
AcDbLine
10
71.9819461755
20
317.166493189
11
68.2083982744
21
320.446788334
0
LINE
5
188
100
AcDbEntity
8
0
6
ByLayer
62
256
370
-1
100
AcDbLine
10
70.7351112569
20
315.706637066
11
64.9897779335
21
320.527544138
0
LINE
5
189
100
AcDbEntity
8
0
6
ByLayer
62
256
370
-1
100
AcDbLine
10
69.5139442397
20
314.225243015
11
65.6282144324
21
317.371844971
0
LINE
5
18A
100
AcDbEntity
8
0
6
ByLayer
62
256
370
-1
100
AcDbLine
10
68.3188171033
20
312.722762286
11
64.3787633352
21
315.801069662
0
LINE
5
18B
100
AcDbEntity
8
0
6
ByLayer
62
256
370
-1
100
AcDbLine
10
67.1500938948
20
311.199652547
11
63.1569163446
21
314.208727662
0
LINE
5
18C
100
AcDbEntity
8
0
6
ByLayer
62
256
370
-1
100
AcDbLine
10
66.0081306188
20
309.656377752
11
61.9630456469
21
312.595304014
0
LINE
5
18D
100
AcDbEntity
8
0
6
ByLayer
62
256
370
-1
100
AcDbLine
10
64.8932751282
20
308.093407999
11
58.749634796
21
312.395231271
0
LINE
5
18E
100
AcDbEntity
8
0
6
ByLayer
62
256
370
-1
100
AcDbLine
10
63.8058670189
20
306.511219382
11
59.6606791562
21
309.307183899
0
LINE
5
18F
100
AcDbEntity
8
0
6
ByLayer
62
256
370
-1
100
AcDbLine
10
62.746237526
20
304.910293852
11
58.5528846863
21
307.633489027
0
LINE
5
190
100
AcDbEntity
8
0
6
ByLayer
62
256
370
-1
100
AcDbLine
10
61.7147094228
20
303.291119066
11
57.474468942
21
305.940715387
0
LINE
5
191
100
AcDbEntity
8
0
6
ByLayer
62
256
370
-1
100
AcDbLine
10
60.7115969228
20
301.65418824
11
56.4257604193
21
304.229378615
0
LINE
5
192
100
AcDbEntity
8
0
6
ByLayer
62
256
370
-1
100
AcDbLine
10
59.7372055837
20
300
11
53.2420150553
21
303.75
0
LINE
5
193
100
AcDbEntity
8
0
6
ByLayer
62
256
370
-1
100
AcDbLine
10
58.7918322147
20
298.329058227
11
54.418733679
21
300.753106328
0
LINE
5
194
100
AcDbEntity
8
0
6
ByLayer
62
256
370
-1
100
AcDbLine
10
57.8757647855
20
296.641871906
11
53.4610268212
21
298.98922972
0
LINE
5
195
100
AcDbEntity
8
0
6
ByLayer
62
256
370
-1
100
AcDbLine
10
56.9892823393
20
294.938954971
11
52.5342497183
21
297.20890747
0
LINE
5
196
100
AcDbEntity
8
0
6
ByLayer
62
256
370
-1
100
AcDbLine
10
56.1326549071
20
293.220826147
11
51.6386846756
21
295.412681881
0
LINE
5
197
100
AcDbEntity
8
0
6
ByLayer
62
256
370
-1
100
AcDbLine
10
55.306143426
20
291.488008791
11
48.5088350232
21
294.657645755
0
LINE
5
198
100
AcDbEntity
8
0
6
ByLayer
62
256
370
-1
100
AcDbLine
10
54.5099996593
20
289.741030738
11
49.9422723711
21
291.774713954
0
LINE
5
199
100
AcDbEntity
8
0
6
ByLayer
62
256
370
-1
100
AcDbLine
10
53.7444661202
20
287.980424134
11
49.141941853
21
289.934079776
0
LINE
5
19A
100
AcDbEntity
8
0
6
ByLayer
62
256
370
-1
100
AcDbLine
10
53.0097759977
20
286.206725276
11
48.3738567248
21
288.079758243
0
LINE
5
19B
100
AcDbEntity
8
0
6
ByLayer
62
256
370
-1
100
AcDbLine
10
52.3061530853
20
284.42047445
11
47.6382509528
21
286.212314198
0
LINE
5
19C
100
AcDbEntity
8
0
6
ByLayer
62
256
370
-1
100
AcDbLine
10
51.6338117136
20
282.622215766
11
44.5861170577
21
285.187366841
0
LINE
5
19D
100
AcDbEntity
8
0
6
ByLayer
62
256
370
-1
100
AcDbLine
10
50.9929566841
20
280.81249699
11
46.2653638061
21
282.440337763
0
LINE
5
19E
100
AcDbEntity
8
0
6
ByLayer
62
256
370
-1
100
AcDbLine
10
50.3837832075
20
278.991869381
11
45.6285006261
21
280.536954353
0
LINE
5
19F
100
AcDbEntity
8
0
6
ByLayer
62
256
370
-1
100
AcDbLine
10
49.8064768441
20
277.16088752
11
45.0249530643
21
278.622746043
0
LINE
5
1A0
100
AcDbEntity
8
0
6
ByLayer
62
256
370
-1
100
AcDbLine
10
49.2612134468
20
275.32010914
11
44.4549049671
21
276.698295919
0
LINE
5
1A1
100
AcDbEntity
8
0
6
ByLayer
62
256
370
-1
100
AcDbLine
10
48.7481591082
20
273.470094961
11
41.503715411
21
275.4112378
0
LINE
5
1A2
100
AcDbEntity
8
0
6
ByLayer
62
256
370
-1
100
AcDbLine
10
48.2674701096
20
271.611408516
11
43.4159914783
21
272.821017994
0
LINE
5
1A3
100
AcDbEntity
8
0
6
ByLayer
62
256
370
-1
100
AcDbLine
10
47.8192928736
20
269.744615978
11
42.9474425497
21
270.86937125
0
LINE
5
1A4
100
AcDbEntity
8
0
6
ByLayer
62
256
370
-1
100
AcDbLine
10
47.4037639193
20
267.87028599
11
42.5130259156
21
268.909844444
0
LINE
5
1A5
100
AcDbEntity
8
0
6
ByLayer
62
256
370
-1
100
AcDbLine
10
47.0210098208
20
265.988989491
11
42.1128739035
21
266.943034468
0
LINE
5
1A6
100
AcDbEntity
8
0
6
ByLayer
62
256
370
-1
100
AcDbLine
10
46.6711471687
20
264.101299543
11
39.2850890211
21
265.403660876
0
LINE
5
1A7
100
AcDbEntity
8
0
6
ByLayer
62
256
370
-1
100
AcDbLine
10
46.3542825345
20
262.207791154
11
41.4158408316
21
262.98996348
0
LINE
5
1A8
100
AcDbEntity
8
0
6
ByLayer
62
256
370
-1
100
AcDbLine
10
46.0705124384
20
260.309041106
11
41.1191720947
21
261.00490661
0
LINE
5
1A9
100
AcDbEntity
8
0
6
ByLayer
62
256
370
-1
100
AcDbLine
10
45.8199233195
20
258.405627775
11
40.8571925612
21
259.014974492
0
LINE
5
1AA
100
AcDbEntity
8
0
6
ByLayer
62
256
370
-1
100
AcDbLine
10
45.6025915095
20
256.498130959
11
40.6299820326
21
257.020773276
0
LINE
5
1AB
100
AcDbEntity
8
0
6
ByLayer
62
256
370
-1
100
AcDbLine
10
45.4185832099
20
254.587131702
11
37.9471229742
21
255.240799773
0
LINE
5
1AC
100
AcDbEntity
8
0
6
ByLayer
62
256
370
-1
100
AcDbLine
10
45.2679544714
20
252.673212112
11
40.2801342201
21
253.021994481
0
LINE
5
1AD
100
AcDbEntity
8
0
6
ByLayer
62
256
370
-1
100
AcDbLine
10
45.150751177
20
250.756955187
11
40.1576035032
21
251.018634968
0
LINE
5
1AE
100
AcDbEntity
8
0
6
ByLayer
62
256
370
-1
100
AcDbLine
10
45.0670090279
20
248.838944637
11
40.0700548928
21
249.013442121
0
LINE
5
1AF
100
AcDbEntity
8
0
6
ByLayer
62
256
370
-1
100
AcDbLine
10
45.0167535328
20
246.919764708
11
40.017515057
21
247.00702674
0
LINE
5
1B0
100
AcDbEntity
8
0
6
ByLayer
62
256
370
-1
100
AcDbLine
10
45.0167535328
20
243.080235292
11
40.017515057
21
242.99297326
0
LINE
5
1B1
100
AcDbEntity
8
0
6
ByLayer
62
256
370
-1
100
AcDbLine
10
45.0670090279
20
241.161055363
11
40.0700548928
21
240.986557879
0
LINE
5
1B2
100
AcDbEntity
8
0
6
ByLayer
62
256
370
-1
100
AcDbLine
10
45.150751177
20
239.243044813
11
40.1576035032
21
238.981365032
0
LINE
5
1B3
100
AcDbEntity
8
0
6
ByLayer
62
256
370
-1
100
AcDbLine
10
45.2679544714
20
237.326787888
11
40.2801342201
21
236.978005519
0
LINE
5
1B4
100
AcDbEntity
8
0
6
ByLayer
62
256
370
-1
100
AcDbLine
10
45.4185832099
20
235.412868298
11
37.9471229742
21
234.759200227
0
LINE
5
1B5
100
AcDbEntity
8
0
6
ByLayer
62
256
370
-1
100
AcDbLine
10
45.6025915095
20
233.501869041
11
40.6299820326
21
232.979226724
0
LINE
5
1B6
100
AcDbEntity
8
0
6
ByLayer
62
256
370
-1
100
AcDbLine
10
45.8199233195
20
231.594372225
11
40.8571925612
21
230.985025508
0
LINE
5
1B7
100
AcDbEntity
8
0
6
ByLayer
62
256
370
-1
100
AcDbLine
10
46.0705124384
20
229.690958894
11
41.1191720947
21
228.99509339
0
LINE
5
1B8
100
AcDbEntity
8
0
6
ByLayer
62
256
370
-1
100
AcDbLine
10
46.3542825345
20
227.792208846
11
41.4158408316
21
227.01003652
0
LINE
5
1B9
100
AcDbEntity
8
0
6
ByLayer
62
256
370
-1
100
AcDbLine
10
46.6711471687
20
225.898700457
11
39.2850890211
21
224.596339124
0
LINE
5
1BA
100
AcDbEntity
8
0
6
ByLayer
62
256
370
-1
100
AcDbLine
10
47.0210098208
20
224.011010509
11
42.1128739035
21
223.056965532
0
LINE
5
1BB
100
AcDbEntity
8
0
6
ByLayer
62
256
370
-1
100
AcDbLine
10
47.4037639193
20
222.12971401
11
42.5130259156
21
221.090155556
0
LINE
5
1BC
100
AcDbEntity
8
0
6
ByLayer
62
256
370
-1
100
AcDbLine
10
47.8192928736
20
220.255384022
11
42.9474425497
21
219.13062875
0
LINE
5
1BD
100
AcDbEntity
8
0
6
ByLayer
62
256
370
-1
100
AcDbLine
10
48.2674701096
20
218.388591484
11
43.4159914783
21
217.178982006
0
LINE
5
1BE
100
AcDbEntity
8
0
6
ByLayer
62
256
370
-1
100
AcDbLine
10
48.7481591082
20
216.529905039
11
41.503715411
21
214.5887622
0
LINE
5
1BF
100
AcDbEntity
8
0
6
ByLayer
62
256
370
-1
100
AcDbLine
10
49.2612134468
20
214.67989086
11
44.4549049671
21
213.301704081
0
LINE
5
1C0
100
AcDbEntity
8
0
6
ByLayer
62
256
370
-1
100
AcDbLine
10
49.8064768441
20
212.83911248
11
45.0249530643
21
211.377253957
0
LINE
5
1C1
100
AcDbEntity
8
0
6
ByLayer
62
256
370
-1
100
AcDbLine
10
50.3837832075
20
211.008130619
11
45.6285006261
21
209.463045647
0
LINE
5
1C2
100
AcDbEntity
8
0
6
ByLayer
62
256
370
-1
100
AcDbLine
10
50.9929566841
20
209.18750301
11
46.2653638061
21
207.559662237
0
LINE
5
1C3
100
AcDbEntity
8
0
6
ByLayer
62
256
370
-1
100
AcDbLine
10
51.6338117136
20
207.377784234
11
44.5861170577
21
204.812633159
0
LINE
5
1C4
100
AcDbEntity
8
0
6
ByLayer
62
256
370
-1
100
AcDbLine
10
52.3061530853
20
205.57952555
11
47.6382509528
21
203.787685802
0
LINE
5
1C5
100
AcDbEntity
8
0
6
ByLayer
62
256
370
-1
100
AcDbLine
10
53.0097759977
20
203.793274724
11
48.3738567248
21
201.920241757
0
LINE
5
1C6
100
AcDbEntity
8
0
6
ByLayer
62
256
370
-1
100
AcDbLine
10
53.7444661202
20
202.019575866
11
49.141941853
21
200.065920224
0
LINE
5
1C7
100
AcDbEntity
8
0
6
ByLayer
62
256
370
-1
100
AcDbLine
10
54.5099996593
20
200.258969262
11
49.9422723711
21
198.225286046
0
LINE
5
1C8
100
AcDbEntity
8
0
6
ByLayer
62
256
370
-1
100
AcDbLine
10
55.306143426
20
198.511991209
11
48.5088350232
21
195.342354245
0
LINE
5
1C9
100
AcDbEntity
8
0
6
ByLayer
62
256
370
-1
100
AcDbLine
10
56.1326549071
20
196.779173853
11
51.6386846756
21
194.587318119
0
LINE
5
1CA
100
AcDbEntity
8
0
6
ByLayer
62
256
370
-1
100
AcDbLine
10
56.9892823393
20
195.061045029
11
52.5342497183
21
192.79109253
0
LINE
5
1CB
100
AcDbEntity
8
0
6
ByLayer
62
256
370
-1
100
AcDbLine
10
57.8757647855
20
193.358128094
11
53.4610268212
21
191.01077028
0
LINE
5
1CC
100
AcDbEntity
8
0
6
ByLayer
62
256
370
-1
100
AcDbLine
10
58.7918322147
20
191.670941773
11
54.418733679
21
189.246893672
0
LINE
5
1CD
100
AcDbEntity
8
0
6
ByLayer
62
256
370
-1
100
AcDbLine
10
59.7372055837
20
190
11
53.2420150553
21
186.25
0
LINE
5
1CE
100
AcDbEntity
8
0
6
ByLayer
62
256
370
-1
100
AcDbLine
10
60.7115969228
20
188.34581176
11
56.4257604193
21
185.770621385
0
LINE
5
1CF
100
AcDbEntity
8
0
6
ByLayer
62
256
370
-1
100
AcDbLine
10
61.7147094228
20
186.708880934
11
57.474468942
21
184.059284613
0
LINE
5
1D0
100
AcDbEntity
8
0
6
ByLayer
62
256
370
-1
100
AcDbLine
10
62.746237526
20
185.089706148
11
58.5528846863
21
182.366510973
0
LINE
5
1D1
100
AcDbEntity
8
0
6
ByLayer
62
256
370
-1
100
AcDbLine
10
63.8058670189
20
183.488780618
11
59.6606791562
21
180.692816101
0
LINE
5
1D2
100
AcDbEntity
8
0
6
ByLayer
62
256
370
-1
100
AcDbLine
10
64.8932751282
20
181.906592001
11
58.749634796
21
177.604768729
0
LINE
5
1D3
100
AcDbEntity
8
0
6
ByLayer
62
256
370
-1
100
AcDbLine
10
66.0081306188
20
180.343622248
11
61.9630456469
21
177.404695986
0
LINE
5
1D4
100
AcDbEntity
8
0
6
ByLayer
62
256
370
-1
100
AcDbLine
10
67.1500938948
20
178.800347453
11
63.1569163446
21
175.791272338
0
LINE
5
1D5
100
AcDbEntity
8
0
6
ByLayer
62
256
370
-1
100
AcDbLine
10
68.3188171033
20
177.277237714
11
64.3787633352
21
174.198930338
0
LINE
5
1D6
100
AcDbEntity
8
0
6
ByLayer
62
256
370
-1
100
AcDbLine
10
69.5139442397
20
175.774756985
11
65.6282144324
21
172.628155029
0
LINE
5
1D7
100
AcDbEntity
8
0
6
ByLayer
62
256
370
-1
100
AcDbLine
10
70.7351112569
20
174.293362934
11
64.9897779335
21
169.472455862
0
LINE
5
1D8
100
AcDbEntity
8
0
6
ByLayer
62
256
370
-1
100
AcDbLine
10
71.9819461755
20
172.833506811
11
68.2083982744
21
169.553211666
0
LINE
5
1D9
100
AcDbEntity
8
0
6
ByLayer
62
256
370
-1
100
AcDbLine
10
73.2540691975
20
171.395633301
11
69.5383450701
21
168.049980269
0
LINE
5
1DA
100
AcDbEntity
8
0
6
ByLayer
62
256
370
-1
100
AcDbLine
10
74.5510928219
20
169.980180393
11
70.8943243138
21
166.570188593
0
LINE
5
1DB
100
AcDbEntity
8
0
6
ByLayer
62
256
370
-1
100
AcDbLine
10
75.8726219627
20
168.58757925
11
72.2759229611
21
165.114287397
0
LINE
5
1DC
100
AcDbEntity
8
0
6
ByLayer
62
256
370
-1
100
AcDbLine
10
78.5875792495
20
165.872621963
11
75.1142873972
21
162.275922961
0
LINE
5
1DD
100
AcDbEntity
8
0
6
ByLayer
62
256
370
-1
100
AcDbLine
10
79.9801803931
20
164.551092822
11
76.5701885928
21
160.894324314
0
LINE
5
1DE
100
AcDbEntity
8
0
6
ByLayer
62
256
370
-1
100
AcDbLine
10
81.3956333005
20
163.254069197
11
78.0499802687
21
159.53834507
0
LINE
5
1DF
100
AcDbEntity
8
0
6
ByLayer
62
256
370
-1
100
AcDbLine
10
82.833506811
20
161.981946175
11
79.5532116661
21
158.208398274
0
LINE
5
1E0
100
AcDbEntity
8
0
6
ByLayer
62
256
370
-1
100
AcDbLine
10
84.2933629345
20
160.735111257
11
79.4724558618
21
154.989777934
0
LINE
5
1E1
100
AcDbEntity
8
0
6
ByLayer
62
256
370
-1
100
AcDbLine
10
85.7747569845
20
159.51394424
11
82.6281550293
21
155.628214432
0
LINE
5
1E2
100
AcDbEntity
8
0
6
ByLayer
62
256
370
-1
100
AcDbLine
10
87.2772377142
20
158.318817103
11
84.1989303375
21
154.378763335
0
LINE
5
1E3
100
AcDbEntity
8
0
6
ByLayer
62
256
370
-1
100
AcDbLine
10
88.8003474533
20
157.150093895
11
85.7912723375
21
153.156916345
0
LINE
5
1E4
100
AcDbEntity
8
0
6
ByLayer
62
256
370
-1
100
AcDbLine
10
90.3436222478
20
156.008130619
11
87.4046959864
21
151.963045647
0
LINE
5
1E5
100
AcDbEntity
8
0
6
ByLayer
62
256
370
-1
100
AcDbLine
10
91.9065920014
20
154.893275128
11
87.6047687288
21
148.749634796
0
LINE
5
1E6
100
AcDbEntity
8
0
6
ByLayer
62
256
370
-1
100
AcDbLine
10
93.4887806182
20
153.805867019
11
90.6928161009
21
149.660679156
0
LINE
5
1E7
100
AcDbEntity
8
0
6
ByLayer
62
256
370
-1
100
AcDbLine
10
95.0897061483
20
152.746237526
11
92.3665109733
21
148.552884686
0
LINE
5
1E8
100
AcDbEntity
8
0
6
ByLayer
62
256
370
-1
100
AcDbLine
10
96.7088809343
20
151.714709423
11
94.0592846132
21
147.474468942
0
LINE
5
1E9
100
AcDbEntity
8
0
6
ByLayer
62
256
370
-1
100
AcDbLine
10
98.3458117599
20
150.711596923
11
95.7706213853
21
146.425760419
0
LINE
5
1EA
100
AcDbEntity
8
0
6
ByLayer
62
256
370
-1
100
AcDbLine
10
100
20
149.737205584
11
96.25
21
143.242015055
0
LINE
5
1EB
100
AcDbEntity
8
0
6
ByLayer
62
256
370
-1
100
AcDbLine
10
101.670941773
20
148.791832215
11
99.2468936717
21
144.418733679
0
LINE
5
1EC
100
AcDbEntity
8
0
6
ByLayer
62
256
370
-1
100
AcDbLine
10
103.358128094
20
147.875764786
11
101.01077028
21
143.461026821
0
LINE
5
1ED
100
AcDbEntity
8
0
6
ByLayer
62
256
370
-1
100
AcDbLine
10
105.061045029
20
146.989282339
11
102.79109253
21
142.534249718
0
LINE
5
1EE
100
AcDbEntity
8
0
6
ByLayer
62
256
370
-1
100
AcDbLine
10
106.779173853
20
146.132654907
11
104.587318119
21
141.638684676
0
LINE
5
1EF
100
AcDbEntity
8
0
6
ByLayer
62
256
370
-1
100
AcDbLine
10
108.511991209
20
145.306143426
11
105.342354245
21
138.508835023
0
LINE
5
1F0
100
AcDbEntity
8
0
6
ByLayer
62
256
370
-1
100
AcDbLine
10
110.258969262
20
144.509999659
11
108.225286046
21
139.942272371
0
LINE
5
1F1
100
AcDbEntity
8
0
6
ByLayer
62
256
370
-1
100
AcDbLine
10
112.019575866
20
143.74446612
11
110.065920224
21
139.141941853
0
LINE
5
1F2
100
AcDbEntity
8
0
6
ByLayer
62
256
370
-1
100
AcDbLine
10
113.793274724
20
143.009775998
11
111.920241757
21
138.373856725
0
LINE
5
1F3
100
AcDbEntity
8
0
6
ByLayer
62
256
370
-1
100
AcDbLine
10
115.57952555
20
142.306153085
11
113.787685802
21
137.638250953
0
LINE
5
1F4
100
AcDbEntity
8
0
6
ByLayer
62
256
370
-1
100
AcDbLine
10
117.377784234
20
141.633811714
11
114.812633159
21
134.586117058
0
LINE
5
1F5
100
AcDbEntity
8
0
6
ByLayer
62
256
370
-1
100
AcDbLine
10
119.18750301
20
140.992956684
11
117.559662237
21
136.265363806
0
LINE
5
1F6
100
AcDbEntity
8
0
6
ByLayer
62
256
370
-1
100
AcDbLine
10
121.008130619
20
140.383783208
11
119.463045647
21
135.628500626
0
LINE
5
1F7
100
AcDbEntity
8
0
6
ByLayer
62
256
370
-1
100
AcDbLine
10
122.83911248
20
139.806476844
11
121.377253957
21
135.024953064
0
LINE
5
1F8
100
AcDbEntity
8
0
6
ByLayer
62
256
370
-1
100
AcDbLine
10
124.67989086
20
139.261213447
11
123.301704081
21
134.454904967
0
LINE
5
1F9
100
AcDbEntity
8
0
6
ByLayer
62
256
370
-1
100
AcDbLine
10
126.529905039
20
138.748159108
11
124.5887622
21
131.503715411
0
LINE
5
1FA
100
AcDbEntity
8
0
6
ByLayer
62
256
370
-1
100
AcDbLine
10
128.388591484
20
138.26747011
11
127.178982006
21
133.415991478
0
LINE
5
1FB
100
AcDbEntity
8
0
6
ByLayer
62
256
370
-1
100
AcDbLine
10
130.255384022
20
137.819292874
11
129.13062875
21
132.94744255
0
LINE
5
1FC
100
AcDbEntity
8
0
6
ByLayer
62
256
370
-1
100
AcDbLine
10
132.12971401
20
137.403763919
11
131.090155556
21
132.513025916
0
LINE
5
1FD
100
AcDbEntity
8
0
6
ByLayer
62
256
370
-1
100
AcDbLine
10
134.011010509
20
137.021009821
11
133.056965532
21
132.112873904
0
LINE
5
1FE
100
AcDbEntity
8
0
6
ByLayer
62
256
370
-1
100
AcDbLine
10
135.898700457
20
136.671147169
11
134.596339124
21
129.285089021
0
LINE
5
1FF
100
AcDbEntity
8
0
6
ByLayer
62
256
370
-1
100
AcDbLine
10
137.792208846
20
136.354282535
11
137.01003652
21
131.415840832
0
LINE
5
200
100
AcDbEntity
8
0
6
ByLayer
62
256
370
-1
100
AcDbLine
10
139.690958894
20
136.070512438
11
138.99509339
21
131.119172095
0
LINE
5
201
100
AcDbEntity
8
0
6
ByLayer
62
256
370
-1
100
AcDbLine
10
141.594372225
20
135.819923319
11
140.985025508
21
130.857192561
0
LINE
5
202
100
AcDbEntity
8
0
6
ByLayer
62
256
370
-1
100
AcDbLine
10
143.501869041
20
135.602591509
11
142.979226724
21
130.629982033
0
LINE
5
203
100
AcDbEntity
8
0
6
ByLayer
62
256
370
-1
100
AcDbLine
10
145.412868298
20
135.41858321
11
144.759200227
21
127.947122974
0
LINE
5
204
100
AcDbEntity
8
0
6
ByLayer
62
256
370
-1
100
AcDbLine
10
147.326787888
20
135.267954471
11
146.978005519
21
130.28013422
0
LINE
5
205
100
AcDbEntity
8
0
6
ByLayer
62
256
370
-1
100
AcDbLine
10
149.243044813
20
135.150751177
11
148.981365032
21
130.157603503
0
LINE
5
206
100
AcDbEntity
8
0
6
ByLayer
62
256
370
-1
100
AcDbLine
10
151.161055363
20
135.067009028
11
150.986557879
21
130.070054893
0
LINE
5
207
100
AcDbEntity
8
0
6
ByLayer
62
256
370
-1
100
AcDbLine
10
153.080235292
20
135.016753533
11
152.99297326
21
130.017515057
0
LINE
5
208
100
AcDbEntity
8
0
6
ByLayer
62
256
370
-1
100
AcDbLine
10
232.781745931
20
167.218254069
11
239.852813742
21
160.147186258
0
LINE
5
209
100
AcDbEntity
8
0
6
ByLayer
62
256
370
-1
100
AcDbLine
10
155
20
135
11
155
21
120
0
LINE
5
20A
100
AcDbEntity
8
Cut
6
ByLayer
62
1
370
-1
100
AcDbLine
10
15.400902
20
379.149443
11
25.400902
21
379.149443
0
LINE
5
20B
100
AcDbEntity
8
Cut
6
ByLayer
62
1
370
-1
100
AcDbLine
10
25.400902
20
379.149443
11
25.400902
21
383.649443
0
LINE
5
20C
100
AcDbEntity
8
Cut
6
ByLayer
62
1
370
-1
100
AcDbLine
10
15.400902
20
383.649443
11
15.400902
21
379.149443
0
LINE
5
20D
100
AcDbEntity
8
Cut
6
ByLayer
62
1
370
-1
100
AcDbLine
10
24.900902
20
385.149443
11
15.900902
21
385.149443
0
LINE
5
20E
100
AcDbEntity
8
Cut
6
ByLayer
62
1
370
-1
100
AcDbLine
10
15.400902
20
383.649443
11
15.900902
21
385.149443
0
LINE
5
20F
100
AcDbEntity
8
Cut
6
ByLayer
62
1
370
-1
100
AcDbLine
10
24.900902
20
385.149443
11
25.400902
21
383.649443
0
LINE
5
210
100
AcDbEntity
8
Cut
6
ByLayer
62
1
370
-1
100
AcDbLine
10
15.400902
20
368.149443
11
25.400902
21
368.149443
0
LINE
5
211
100
AcDbEntity
8
Cut
6
ByLayer
62
1
370
-1
100
AcDbLine
10
25.400902
20
368.149443
11
25.400902
21
372.649443
0
LINE
5
212
100
AcDbEntity
8
Cut
6
ByLayer
62
1
370
-1
100
AcDbLine
10
15.400902
20
372.649443
11
15.400902
21
368.149443
0
LINE
5
213
100
AcDbEntity
8
Cut
6
ByLayer
62
1
370
-1
100
AcDbLine
10
24.900902
20
374.149443
11
15.900902
21
374.149443
0
LINE
5
214
100
AcDbEntity
8
Cut
6
ByLayer
62
1
370
-1
100
AcDbLine
10
15.400902
20
372.649443
11
15.900902
21
374.149443
0
LINE
5
215
100
AcDbEntity
8
Cut
6
ByLayer
62
1
370
-1
100
AcDbLine
10
24.900902
20
374.149443
11
25.400902
21
372.649443
0
LINE
5
216
100
AcDbEntity
8
Cut
6
ByLayer
62
1
370
-1
100
AcDbLine
10
15.400902
20
357.149443
11
25.400902
21
357.149443
0
LINE
5
217
100
AcDbEntity
8
Cut
6
ByLayer
62
1
370
-1
100
AcDbLine
10
25.400902
20
357.149443
11
25.400902
21
361.649443
0
LINE
5
218
100
AcDbEntity
8
Cut
6
ByLayer
62
1
370
-1
100
AcDbLine
10
15.400902
20
361.649443
11
15.400902
21
357.149443
0
LINE
5
219
100
AcDbEntity
8
Cut
6
ByLayer
62
1
370
-1
100
AcDbLine
10
24.900902
20
363.149443
11
15.900902
21
363.149443
0
LINE
5
21A
100
AcDbEntity
8
Cut
6
ByLayer
62
1
370
-1
100
AcDbLine
10
15.400902
20
361.649443
11
15.900902
21
363.149443
0
LINE
5
21B
100
AcDbEntity
8
Cut
6
ByLayer
62
1
370
-1
100
AcDbLine
10
24.900902
20
363.149443
11
25.400902
21
361.649443
0
LINE
5
21C
100
AcDbEntity
8
Cut
6
ByLayer
62
1
370
-1
100
AcDbLine
10
15.400902
20
346.149443
11
25.400902
21
346.149443
0
LINE
5
21D
100
AcDbEntity
8
Cut
6
ByLayer
62
1
370
-1
100
AcDbLine
10
25.400902
20
346.149443
11
25.400902
21
350.649443
0
LINE
5
21E
100
AcDbEntity
8
Cut
6
ByLayer
62
1
370
-1
100
AcDbLine
10
15.400902
20
350.649443
11
15.400902
21
346.149443
0
LINE
5
21F
100
AcDbEntity
8
Cut
6
ByLayer
62
1
370
-1
100
AcDbLine
10
24.900902
20
352.149443
11
15.900902
21
352.149443
0
LINE
5
220
100
AcDbEntity
8
Cut
6
ByLayer
62
1
370
-1
100
AcDbLine
10
15.400902
20
350.649443
11
15.900902
21
352.149443
0
LINE
5
221
100
AcDbEntity
8
Cut
6
ByLayer
62
1
370
-1
100
AcDbLine
10
24.900902
20
352.149443
11
25.400902
21
350.649443
0
LINE
5
222
100
AcDbEntity
8
Cut
6
ByLayer
62
1
370
-1
100
AcDbLine
10
15.400902
20
335.149443
11
25.400902
21
335.149443
0
LINE
5
223
100
AcDbEntity
8
Cut
6
ByLayer
62
1
370
-1
100
AcDbLine
10
25.400902
20
335.149443
11
25.400902
21
339.649443
0
LINE
5
224
100
AcDbEntity
8
Cut
6
ByLayer
62
1
370
-1
100
AcDbLine
10
15.400902
20
339.649443
11
15.400902
21
335.149443
0
LINE
5
225
100
AcDbEntity
8
Cut
6
ByLayer
62
1
370
-1
100
AcDbLine
10
24.900902
20
341.149443
11
15.900902
21
341.149443
0
LINE
5
226
100
AcDbEntity
8
Cut
6
ByLayer
62
1
370
-1
100
AcDbLine
10
15.400902
20
339.649443
11
15.900902
21
341.149443
0
LINE
5
227
100
AcDbEntity
8
Cut
6
ByLayer
62
1
370
-1
100
AcDbLine
10
24.900902
20
341.149443
11
25.400902
21
339.649443
0
LINE
5
228
100
AcDbEntity
8
Cut
6
ByLayer
62
1
370
-1
100
AcDbLine
10
30.400902
20
379.149443
11
40.400902
21
379.149443
0
LINE
5
229
100
AcDbEntity
8
Cut
6
ByLayer
62
1
370
-1
100
AcDbLine
10
40.400902
20
379.149443
11
40.400902
21
383.649443
0
LINE
5
22A
100
AcDbEntity
8
Cut
6
ByLayer
62
1
370
-1
100
AcDbLine
10
30.400902
20
383.649443
11
30.400902
21
379.149443
0
LINE
5
22B
100
AcDbEntity
8
Cut
6
ByLayer
62
1
370
-1
100
AcDbLine
10
39.900902
20
385.149443
11
30.900902
21
385.149443
0
LINE
5
22C
100
AcDbEntity
8
Cut
6
ByLayer
62
1
370
-1
100
AcDbLine
10
30.400902
20
383.649443
11
30.900902
21
385.149443
0
LINE
5
22D
100
AcDbEntity
8
Cut
6
ByLayer
62
1
370
-1
100
AcDbLine
10
39.900902
20
385.149443
11
40.400902
21
383.649443
0
LINE
5
22E
100
AcDbEntity
8
Cut
6
ByLayer
62
1
370
-1
100
AcDbLine
10
30.400902
20
368.149443
11
40.400902
21
368.149443
0
LINE
5
22F
100
AcDbEntity
8
Cut
6
ByLayer
62
1
370
-1
100
AcDbLine
10
40.400902
20
368.149443
11
40.400902
21
372.649443
0
LINE
5
230
100
AcDbEntity
8
Cut
6
ByLayer
62
1
370
-1
100
AcDbLine
10
30.400902
20
372.649443
11
30.400902
21
368.149443
0
LINE
5
231
100
AcDbEntity
8
Cut
6
ByLayer
62
1
370
-1
100
AcDbLine
10
39.900902
20
374.149443
11
30.900902
21
374.149443
0
LINE
5
232
100
AcDbEntity
8
Cut
6
ByLayer
62
1
370
-1
100
AcDbLine
10
30.400902
20
372.649443
11
30.900902
21
374.149443
0
LINE
5
233
100
AcDbEntity
8
Cut
6
ByLayer
62
1
370
-1
100
AcDbLine
10
39.900902
20
374.149443
11
40.400902
21
372.649443
0
LINE
5
234
100
AcDbEntity
8
Cut
6
ByLayer
62
1
370
-1
100
AcDbLine
10
30.400902
20
357.149443
11
40.400902
21
357.149443
0
LINE
5
235
100
AcDbEntity
8
Cut
6
ByLayer
62
1
370
-1
100
AcDbLine
10
40.400902
20
357.149443
11
40.400902
21
361.649443
0
LINE
5
236
100
AcDbEntity
8
Cut
6
ByLayer
62
1
370
-1
100
AcDbLine
10
30.400902
20
361.649443
11
30.400902
21
357.149443
0
LINE
5
237
100
AcDbEntity
8
Cut
6
ByLayer
62
1
370
-1
100
AcDbLine
10
39.900902
20
363.149443
11
30.900902
21
363.149443
0
LINE
5
238
100
AcDbEntity
8
Cut
6
ByLayer
62
1
370
-1
100
AcDbLine
10
30.400902
20
361.649443
11
30.900902
21
363.149443
0
LINE
5
239
100
AcDbEntity
8
Cut
6
ByLayer
62
1
370
-1
100
AcDbLine
10
39.900902
20
363.149443
11
40.400902
21
361.649443
0
LINE
5
23A
100
AcDbEntity
8
Cut
6
ByLayer
62
1
370
-1
100
AcDbLine
10
45.400902
20
379.149443
11
55.400902
21
379.149443
0
LINE
5
23B
100
AcDbEntity
8
Cut
6
ByLayer
62
1
370
-1
100
AcDbLine
10
55.400902
20
379.149443
11
55.400902
21
383.649443
0
LINE
5
23C
100
AcDbEntity
8
Cut
6
ByLayer
62
1
370
-1
100
AcDbLine
10
45.400902
20
383.649443
11
45.400902
21
379.149443
0
LINE
5
23D
100
AcDbEntity
8
Cut
6
ByLayer
62
1
370
-1
100
AcDbLine
10
54.900902
20
385.149443
11
45.900902
21
385.149443
0
LINE
5
23E
100
AcDbEntity
8
Cut
6
ByLayer
62
1
370
-1
100
AcDbLine
10
45.400902
20
383.649443
11
45.900902
21
385.149443
0
LINE
5
23F
100
AcDbEntity
8
Cut
6
ByLayer
62
1
370
-1
100
AcDbLine
10
54.900902
20
385.149443
11
55.400902
21
383.649443
0
LINE
5
240
100
AcDbEntity
8
Cut
6
ByLayer
62
1
370
-1
100
AcDbLine
10
45.400902
20
368.149443
11
55.400902
21
368.149443
0
LINE
5
241
100
AcDbEntity
8
Cut
6
ByLayer
62
1
370
-1
100
AcDbLine
10
55.400902
20
368.149443
11
55.400902
21
372.649443
0
LINE
5
242
100
AcDbEntity
8
Cut
6
ByLayer
62
1
370
-1
100
AcDbLine
10
45.400902
20
372.649443
11
45.400902
21
368.149443
0
LINE
5
243
100
AcDbEntity
8
Cut
6
ByLayer
62
1
370
-1
100
AcDbLine
10
54.900902
20
374.149443
11
45.900902
21
374.149443
0
LINE
5
244
100
AcDbEntity
8
Cut
6
ByLayer
62
1
370
-1
100
AcDbLine
10
45.400902
20
372.649443
11
45.900902
21
374.149443
0
LINE
5
245
100
AcDbEntity
8
Cut
6
ByLayer
62
1
370
-1
100
AcDbLine
10
54.900902
20
374.149443
11
55.400902
21
372.649443
0
MTEXT
5
246
100
AcDbEntity
8
Text
6
ByLayer
62
256
370
-1
100
AcDbMText
10
155
20
377.5
30
0
40
4
41
7.11111111111
71
5
72
1
1
180
7
iso
210
0
220
0
230
1
50
0
73
2
44
1
0
MTEXT
5
247
100
AcDbEntity
8
Text
6
ByLayer
62
256
370
-1
100
AcDbMText
10
287.5
20
245
30
0
40
4
41
4.88888888889
71
5
72
1
1
90
7
iso
210
0
220
0
230
1
50
270
73
2
44
1
0
MTEXT
5
248
100
AcDbEntity
8
Text
6
ByLayer
62
256
370
-1
100
AcDbMText
10
22.5
20
245
30
0
40
4
41
8
71
5
72
1
1
270
7
iso
210
0
220
0
230
1
50
90
73
2
44
1
0
MTEXT
5
249
100
AcDbEntity
8
Text
6
ByLayer
62
256
370
-1
100
AcDbMText
10
246.923881554
20
153.076118446
30
0
40
4
41
5.33333333333
71
5
72
1
1
45
7
iso
210
0
220
0
230
1
50
225
73
2
44
1
0
MTEXT
5
24A
100
AcDbEntity
8
Text
6
ByLayer
62
256
370
-1
100
AcDbMText
10
246.923881554
20
336.923881554
30
0
40
4
41
7.11111111111
71
5
72
1
1
135
7
iso
210
0
220
0
230
1
50
315
73
2
44
1
0
MTEXT
5
24B
100
AcDbEntity
8
Text
6
ByLayer
62
256
370
-1
100
AcDbMText
10
63.0761184457
20
336.923881554
30
0
40
4
41
8
71
5
72
1
1
225
7
iso
210
0
220
0
230
1
50
45
73
2
44
1
0
MTEXT
5
24C
100
AcDbEntity
8
Text
6
ByLayer
62
256
370
-1
100
AcDbMText
10
63.0761184457
20
153.076118446
30
0
40
4
41
7.11111111111
71
5
72
1
1
315
7
iso
210
0
220
0
230
1
50
135
73
2
44
1
0
LINE
5
24D
100
AcDbEntity
8
0
6
ByLayer
62
256
370
-1
100
AcDbLine
10
192.622215766
20
141.633811714
11
191.254135193
21
145.392582197
0
LINE
5
24E
100
AcDbEntity
8
0
6
ByLayer
62
256
370
-1
100
AcDbLine
10
188.626483546
20
140.265766798
11
187.403702326
21
144.074284369
0
LINE
5
24F
100
AcDbEntity
8
0
6
ByLayer
62
256
370
-1
100
AcDbLine
10
184.581180268
20
139.052117652
11
183.505500985
21
142.904767919
0
LINE
5
250
100
AcDbEntity
8
0
6
ByLayer
62
256
370
-1
100
AcDbLine
10
180.492269384
20
137.994653397
11
179.56527777
21
141.88575691
0
LINE
5
251
100
AcDbEntity
8
0
6
ByLayer
62
256
370
-1
100
AcDbLine
10
176.365778634
20
137.094932912
11
175.588841229
21
141.018753533
0
LINE
5
252
100
AcDbEntity
8
0
6
ByLayer
62
256
370
-1
100
AcDbLine
10
190.630916002
20
140.930610529
11
188.039576656
21
148.4992934
0
LINE
5
253
100
AcDbEntity
8
0
6
ByLayer
62
256
370
-1
100
AcDbLine
10
186.609657183
20
139.639525567
11
184.310773025
21
147.302105526
0
LINE
5
254
100
AcDbEntity
8
0
6
ByLayer
62
256
370
-1
100
AcDbLine
10
182.541800446
20
138.503759558
11
180.538760414
21
146.248940681
0
LINE
5
255
100
AcDbEntity
8
0
6
ByLayer
62
256
370
-1
100
AcDbLine
10
178.43334249
20
137.524986812
11
176.7290994
21
145.341351408
0
LINE
5
256
100
AcDbEntity
8
0
6
ByLayer
62
256
370
-1
100
AcDbLine
10
174.29033987
20
136.704650203
11
172.887406061
21
144.580675643
0
MTEXT
5
257
100
AcDbEntity
8
Text
6
ByLayer
62
256
370
-1
100
AcDbMText
10
190.912115049
20
146.332274817
30
0
40
3
41
2.33333333333
71
4
72
1
1
.0
7
iso
210
0
220
0
230
1
50
110
73
2
44
1
0
MTEXT
5
258
100
AcDbEntity
8
Text
6
ByLayer
62
256
370
-1
100
AcDbMText
10
187.098007021
20
145.026413762
30
0
40
3
41
2.33333333333
71
4
72
1
1
.2
7
iso
210
0
220
0
230
1
50
107.8
73
2
44
1
0
MTEXT
5
259
100
AcDbEntity
8
Text
6
ByLayer
62
256
370
-1
100
AcDbMText
10
183.236581165
20
143.867930486
30
0
40
3
41
2.66666666667
71
4
72
1
1
.4
7
iso
210
0
220
0
230
1
50
105.6
73
2
44
1
0
MTEXT
5
25A
100
AcDbEntity
8
Text
6
ByLayer
62
256
370
-1
100
AcDbMText
10
179.333529867
20
142.858532788
30
0
40
3
41
2.33333333333
71
4
72
1
1
.6
7
iso
210
0
220
0
230
1
50
103.4
73
2
44
1
0
MTEXT
5
25B
100
AcDbEntity
8
Text
6
ByLayer
62
256
370
-1
100
AcDbMText
10
175.394606878
20
141.999708688
30
0
40
3
41
2.33333333333
71
4
72
1
1
.8
7
iso
210
0
220
0
230
1
50
101.2
73
2
44
1
0
ENDSEC
0
SECTION
2
OBJECTS
0
DICTIONARY
5
C
330
0
100
AcDbDictionary
281
1
3
ACAD_GROUP
350
D
0
DICTIONARY
5
D
330
C
100
AcDbDictionary
281
1
0
ENDSEC
0
EOF
